<svg width="112" height="112" viewBox="0 0 112 112" fill="none" xmlns="http://www.w3.org/2000/svg">
<mask id="mask0_5299_16074" style="mask-type:luminance" maskUnits="userSpaceOnUse" x="6" y="48" width="100" height="17">
<path d="M106 48.0029H6V64.7242H106V48.0029Z" fill="white"/>
</mask>
<g mask="url(#mask0_5299_16074)">
<path fill-rule="evenodd" clip-rule="evenodd" d="M102.587 47.999C100.791 47.999 99.332 49.4582 99.332 51.2555C99.332 53.0528 100.791 54.512 102.587 54.512C104.384 54.512 105.843 53.0528 105.843 51.2555C105.843 49.4582 104.384 47.999 102.587 47.999ZM102.587 50.4241C103.047 50.4241 103.417 50.7966 103.417 51.2555C103.417 51.7144 103.047 52.0869 102.587 52.0869C102.127 52.0869 101.754 51.7144 101.754 51.2555C101.754 50.7966 102.127 50.4241 102.587 50.4241Z" fill="white"/>
<path d="M59.6098 52.0025V58.8533C59.6098 60.3549 60.336 61.1057 61.7901 61.1057C63.2442 61.1057 63.9706 60.3549 63.9706 58.8533V52.0025H68.2623V59.6828C68.2623 61.3271 67.7212 62.5598 66.6376 63.3811C65.5556 64.2041 63.9393 64.6139 61.7901 64.6139C59.6409 64.6139 58.0245 64.2041 56.9426 63.3811C55.859 62.5598 55.3181 61.3271 55.3181 59.6828V52.0025H59.6098ZM90.6573 58.8058C90.6573 60.6549 91.5278 61.5795 93.2655 61.5795C94.1983 61.5795 94.9017 61.2008 95.3754 60.4418H99.5246C98.6869 63.2238 96.5933 64.6139 93.2425 64.6139C92.2147 64.6139 91.2753 64.4598 90.4212 64.1517C89.5671 63.8435 88.8361 63.4057 88.2279 62.8369C87.6197 62.268 87.1491 61.5877 86.8179 60.7975C86.4852 60.0074 86.3196 59.1221 86.3196 58.1418C86.3196 57.1303 86.477 56.2189 86.7934 55.4041C87.1098 54.591 87.5607 53.8992 88.1459 53.3303C88.7295 52.7615 89.4377 52.3221 90.2672 52.0139C91.0967 51.7057 92.0327 51.5517 93.0753 51.5517C94.1032 51.5517 95.0279 51.7057 95.8492 52.0139C96.6722 52.3221 97.3673 52.768 97.9361 53.3533C98.505 53.9385 98.9394 54.6533 99.241 55.4992C99.541 56.3451 99.6901 57.2976 99.6901 58.3566V58.8058H90.6573ZM22.554 52.0025H26.8672V64.1648H22.554V62.8123C21.636 63.9664 20.3968 64.5435 18.8312 64.5435C17.946 64.5435 17.1328 64.3811 16.3902 64.0566C15.6476 63.7336 14.9983 63.2795 14.4459 62.6943C13.8918 62.109 13.4622 61.4221 13.154 60.632C12.8458 59.8418 12.6918 58.9795 12.6918 58.0467C12.6918 57.1779 12.8409 56.3533 13.1409 55.5697C13.4426 54.7877 13.8606 54.1041 14.3983 53.5189C14.936 52.9353 15.5754 52.473 16.318 52.132C17.0606 51.7926 17.8836 51.6221 18.7836 51.6221C20.3016 51.6221 21.5573 52.1517 22.554 53.2107V52.0025ZM80.0835 48.3517H84.3999V64.1648H80.0835V62.8123C79.1671 63.9664 77.9279 64.5435 76.3623 64.5435C75.4771 64.5435 74.6639 64.3779 73.9212 64.0451C73.177 63.7139 72.5296 63.2549 71.9771 62.6697C71.423 62.0861 70.9934 61.3976 70.6852 60.6074C70.377 59.8172 70.2229 58.9648 70.2229 58.0467C70.2229 57.1779 70.3689 56.3533 70.6607 55.5697C70.9541 54.7877 71.3689 54.1041 71.905 53.5189C72.4427 52.9353 73.0868 52.473 73.8377 52.132C74.5885 51.7926 75.4148 51.6221 76.3148 51.6221C77.8328 51.6221 79.0884 52.1517 80.0835 53.2107V48.3517ZM10.2902 48.3517V64.1648H6V48.3517H10.2902ZM43.0033 55.5631V64.1648H38.7114V55.5631H43.0033ZM31.4753 55.5812L34.9295 59.6795V64.1648H30.6393V55.5812H29.2164V52.0025H30.6393V48.3517H34.9295V52.0025H37.3722V55.5812H31.4753ZM47.5147 55.5812L50.9688 59.6795V64.1648H46.677V55.5812H45.2557V52.0025H46.677V48.3517H50.9688V52.0025H53.4097V55.5812H47.5147ZM17.1475 58.0467C17.1475 58.4435 17.2196 58.8107 17.3623 59.15C17.5032 59.4894 17.6967 59.7861 17.9426 60.0385C18.1869 60.2926 18.4802 60.4893 18.8196 60.632C19.1589 60.7746 19.5262 60.8451 19.9212 60.8451C20.3016 60.8451 20.6606 60.7746 21 60.632C21.3409 60.4893 21.6328 60.2926 21.877 60.0385C22.1229 59.7861 22.3196 59.4943 22.4704 59.1615C22.6212 58.8303 22.695 58.4746 22.695 58.0943C22.695 57.7156 22.6212 57.3566 22.4704 57.0156C22.3196 56.6762 22.1229 56.3795 21.877 56.127C21.6328 55.8746 21.3409 55.6762 21 55.5352C20.6606 55.3926 20.3016 55.3205 19.9212 55.3205C19.5262 55.3205 19.1589 55.3926 18.8196 55.5352C18.4802 55.6762 18.1869 55.8746 17.9426 56.127C17.6967 56.3795 17.5032 56.668 17.3623 56.9926C17.2196 57.3172 17.1475 57.668 17.1475 58.0467ZM74.6786 58.0467C74.6786 58.4435 74.7507 58.8107 74.8917 59.15C75.0343 59.4894 75.2278 59.7861 75.4737 60.0385C75.718 60.2926 76.0114 60.4893 76.3507 60.632C76.6901 60.7746 77.0573 60.8451 77.4524 60.8451C77.8327 60.8451 78.1918 60.7746 78.5312 60.632C78.8722 60.4893 79.1639 60.2926 79.4082 60.0385C79.6541 59.7861 79.8507 59.4943 80.0015 59.1615C80.1507 58.8303 80.2262 58.4746 80.2262 58.0943C80.2262 57.7156 80.1507 57.3566 80.0015 57.0156C79.8507 56.6762 79.6541 56.3795 79.4082 56.127C79.1639 55.8746 78.8722 55.6762 78.5312 55.5352C78.1918 55.3926 77.8327 55.3205 77.4524 55.3205C77.0737 55.3205 76.7147 55.3926 76.3737 55.5352C76.0343 55.6762 75.7426 55.8746 75.4967 56.127C75.2525 56.3795 75.054 56.668 74.9048 56.9926C74.754 57.3172 74.6786 57.668 74.6786 58.0467ZM95.6835 56.3172C95.5409 55.7156 95.2491 55.2336 94.8065 54.8713C94.3638 54.5074 93.8262 54.3254 93.1951 54.3254C92.5311 54.3254 91.9901 54.4992 91.5704 54.8467C91.1524 55.1943 90.8868 55.6844 90.7769 56.3172H95.6835ZM40.8229 48.0664C42.118 48.0664 43.1704 49.1172 43.1704 50.4123C43.1704 51.7074 42.118 52.7598 40.8229 52.7598C39.5278 52.7598 38.4754 51.7074 38.4754 50.4123C38.4754 49.1172 39.5278 48.0664 40.8229 48.0664Z" fill="white"/>
</g>
</svg>
