<svg width="112" height="112" viewBox="0 0 112 112" fill="none" xmlns="http://www.w3.org/2000/svg">
<mask id="mask0_5299_16193" style="mask-type:luminance" maskUnits="userSpaceOnUse" x="28" y="42" width="56" height="28">
<path d="M84 42.875H28V69.125H84V42.875Z" fill="white"/>
</mask>
<g mask="url(#mask0_5299_16193)">
<path d="M43.4429 43.1582H38.4767L28.4023 69.1244H33.0848C33.5814 69.1244 34.0071 68.9825 34.3618 68.6987C34.7165 68.415 34.9294 68.1312 35.0713 67.7764L40.5341 52.0974C40.7469 51.6717 40.8888 51.1041 41.1017 50.4656C41.3145 49.8981 43.4429 43.1582 43.4429 43.1582Z" fill="white"/>
<path d="M56.7109 53.8713V69.1247H62.7413V50.6787C61.6062 50.7497 60.471 50.8915 59.5487 50.9625H59.2649C58.5555 51.0334 57.917 51.3882 57.4203 51.9557C56.9237 52.4524 56.7109 53.1618 56.7109 53.8713Z" fill="white"/>
<path d="M54.6523 51.7432C54.2976 51.7432 53.9429 51.8141 53.3044 51.956C42.8753 54.2263 33.2267 61.108 28.4023 69.1249H33.5814C34.149 69.1249 34.7875 68.9121 35.1422 68.4155C41.3855 59.4053 49.7571 54.5101 53.5172 52.5236C54.5105 52.0269 54.5814 51.8141 54.6523 51.7432Z" fill="white"/>
<path d="M43.6563 43.1582H38.4062C38.4062 43.1582 39.4704 43.5129 39.8961 44.4352L47.9841 67.7764C48.1259 68.1312 48.4097 68.4859 48.6935 68.6987C49.0482 68.9116 49.403 69.0535 49.9705 69.0535H54.653L44.9333 44.0096C44.8623 43.7258 44.6495 43.5129 44.4367 43.371C44.2238 43.2291 43.94 43.1582 43.6563 43.1582Z" fill="white"/>
<path d="M62.7413 50.6785V43.1582H56.7109V50.6075C56.7109 50.6785 56.7109 50.7494 56.7818 50.8913C56.8528 50.9623 56.8528 51.0332 56.9237 51.1041C56.9947 51.1751 57.0656 51.1751 57.1366 51.246C57.2075 51.246 57.2785 51.246 57.4203 51.246C59.194 50.9623 61.2514 50.7494 62.7413 50.6785Z" fill="white"/>
<path d="M73.3132 64.7264V64.5845L78.2085 59.5473C78.9179 58.8378 79.5564 58.1284 80.1949 57.4899C80.7625 56.8514 81.3301 56.1419 81.8267 55.3615C82.2524 54.652 82.678 53.8716 82.8909 53.0203C83.1747 52.1689 83.3166 51.2466 83.3166 50.3953C83.3166 49.2601 83.1037 48.2669 82.749 47.3446C82.3943 46.4223 81.8267 45.6419 81.1172 44.9324C80.4078 44.2939 79.4855 43.7264 78.4922 43.3716C77.3571 43.0878 76.222 42.875 74.9449 42.875C73.8098 42.875 72.6747 43.0169 71.6105 43.3716C70.6172 43.6554 69.6949 44.152 68.8436 44.7905C67.9922 45.4291 67.3537 46.2804 66.8571 47.2027C66.3605 48.125 66.0057 49.1892 65.7929 50.4662C66.7862 50.3953 68.347 50.3953 69.553 50.3953C70.4753 50.3953 71.2557 49.8986 71.6814 49.1182C71.8943 48.6926 72.249 48.4088 72.6037 48.125C73.1713 47.6993 73.8807 47.4865 74.6612 47.4865C75.6544 47.4865 76.4348 47.7703 76.9314 48.3378C77.428 48.9054 77.6409 49.6858 77.6409 50.75C77.6409 51.3885 77.5699 51.9561 77.428 52.5236C77.2862 53.0912 77.0024 53.6588 76.7186 54.2264C76.3639 54.8649 76.0091 55.4324 75.5125 55.9291C75.0159 56.5676 74.4483 57.2061 73.8098 57.7736L66.3605 65.152C66.0057 65.4358 65.7929 65.7905 65.5801 66.2162C65.4382 66.5709 65.3672 66.9257 65.3672 67.3514V69.125H70.3335L73.3132 64.7264Z" fill="white"/>
<path d="M83.1023 64.6548C82.7476 64.3001 82.3219 64.1582 81.6834 64.1582H80.6192H76.8591H76.7881C76.6462 64.1582 76.4334 64.1582 76.2915 64.1582C75.8658 64.1582 75.5111 64.2291 75.0854 64.3001C75.0145 64.3001 74.9435 64.3001 74.9435 64.3001C74.6597 64.371 74.4469 64.371 74.2341 64.371C73.8084 64.442 73.3827 64.5129 73.3827 64.5129C72.5314 65.4352 71.4672 66.4285 70.8996 67.067C70.5449 67.4217 70.332 67.9183 70.332 68.415V69.1244H83.6699V65.9319C83.5989 65.3643 83.457 64.9386 83.1023 64.6548Z" fill="white"/>
</g>
</svg>
