<svg width="112" height="112" viewBox="0 0 112 112" fill="none" xmlns="http://www.w3.org/2000/svg">
<mask id="mask0_5299_16163" style="mask-type:luminance" maskUnits="userSpaceOnUse" x="16" y="44" width="81" height="24">
<path d="M97 44.7168H16V67.284H97V44.7168Z" fill="white"/>
</mask>
<g mask="url(#mask0_5299_16163)">
<path d="M27.6824 62.2958C26.9095 60.7745 26.0027 59.238 24.234 59.238C23.8959 59.238 23.5582 59.294 23.2483 59.4354L22.6475 58.2329C23.3797 57.6047 24.5629 57.1066 26.0837 57.1066C28.4497 57.1066 29.6639 58.2462 30.6278 59.701C31.2 58.459 31.4721 56.7818 31.4721 54.7028C31.4721 49.5111 29.8484 46.8454 26.0559 46.8454C22.3187 46.8454 20.7039 49.5111 20.7039 54.7028C20.7039 59.867 22.3187 62.5054 26.0559 62.5054C26.6499 62.5054 27.1879 62.4401 27.6824 62.2958ZM28.6088 64.1076C27.7896 64.3273 26.9191 64.4486 26.0559 64.4486C21.0795 64.4486 16.207 60.4775 16.207 54.7028C16.207 48.8732 21.0795 44.9014 26.0559 44.9014C31.1158 44.9014 35.9416 48.8446 35.9416 54.7028C35.9416 57.9613 34.4211 60.6093 32.2111 62.3208C32.9252 63.3907 33.6603 64.1012 34.6838 64.1012C35.8009 64.1012 36.2515 63.238 36.3268 62.561H37.7816C37.8666 63.4625 37.4157 67.209 33.35 67.209C30.8873 67.209 29.5853 65.7816 28.6088 64.1076ZM39.1409 59.1537V52.4779C39.1409 51.7175 38.86 51.3798 37.9867 51.3798H37.057V49.6058H43.1312V59.0695C43.1312 60.6649 43.9948 61.3685 45.3098 61.3685C46.3889 61.3685 47.4685 60.891 48.0509 59.8009V52.4779C48.0509 51.7175 47.7692 51.3798 46.8963 51.3798H45.9106V49.6058H52.0416V59.5188C52.0416 60.5062 52.4075 60.9563 53.5339 60.9563H53.7313V62.7871L48.2483 63.6599V61.7731H48.1355C47.0748 63.0679 45.5822 63.9416 43.4508 63.9416C41.0566 63.9416 39.1409 62.731 39.1409 59.1537ZM61.708 62.1677C63.8676 62.1677 64.6881 60.289 64.7312 56.5061C64.7731 52.8059 63.8676 51.0147 61.708 51.0147C59.8212 51.0147 58.6381 52.8067 58.6381 56.5061C58.6381 60.2898 59.8019 62.1677 61.708 62.1677ZM61.708 63.9416C57.8027 63.9416 54.281 60.9555 54.281 56.5061C54.281 52.1402 57.7177 49.2391 61.708 49.2391C65.8672 49.2391 69.2003 52.1958 69.2003 56.5061C69.2003 60.9555 65.8672 63.9416 61.708 63.9416ZM69.3244 63.6599V61.8856H69.916C71.3809 61.8856 71.5215 61.4632 71.5215 60.1959V52.4779C71.5215 51.7175 71.1274 51.3798 70.2263 51.3798H69.4377V49.6058H75.0045L75.2862 52.5069H75.3994C76.0192 50.4219 77.6807 49.3233 79.2387 49.3233C80.525 49.3233 81.5293 50.0559 81.5293 51.5397C81.5293 52.5722 81.0328 53.6711 79.6429 53.6711C78.3936 53.6711 78.1502 52.8257 77.117 52.8257C76.1974 52.8257 75.4833 53.6993 75.4833 54.9849V60.1959C75.4833 61.4632 75.7936 61.8856 77.2302 61.8856H78.0467V63.6599H69.3244ZM87.8577 61.5946C89.6325 61.5946 90.3643 59.9142 90.3643 58.2253V55.971C89.0691 57.3129 86.0548 57.3601 86.0548 59.7542C86.0548 60.9277 86.7503 61.5946 87.8577 61.5946ZM90.4493 61.585C89.7167 62.993 88.214 63.9416 86.1116 63.9416C83.6707 63.9416 82.0934 62.6452 82.0934 60.3643C82.0934 55.7743 88.4868 56.9941 90.3643 53.9528V53.6236C90.3643 51.2863 89.4443 50.9204 88.4304 50.9204C85.5857 50.9204 86.8809 53.9794 84.2615 53.9794C83.0038 53.9794 82.5154 53.2202 82.5154 52.3659C82.5154 50.6383 84.5811 49.2391 88.459 49.2391C92.129 49.2391 94.3829 50.2534 94.3829 53.9057V59.7357C94.3829 60.6367 94.7117 61.1255 95.5003 61.1255C95.838 61.1255 96.1197 61.0317 96.3353 60.8813L96.8052 62.0258C96.42 62.6178 95.3964 63.6599 93.4528 63.6599C91.7635 63.6599 90.7024 62.8713 90.5614 61.585H90.4493Z" fill="white"/>
</g>
</svg>
