<svg width="560" height="560" viewBox="0 0 560 560" fill="none" xmlns="http://www.w3.org/2000/svg">
<mask id="mask0_2715_384" style="mask-type:alpha" maskUnits="userSpaceOnUse" x="0" y="0" width="560" height="560">
<circle cx="280" cy="280" r="280" fill="#1F232E"/>
</mask>
<g mask="url(#mask0_2715_384)">
<path d="M0.585938 399.297C0.585937 551.497 125.684 674.874 280 674.874C434.316 674.874 559.414 551.497 559.414 399.297" stroke="#237CFF" stroke-miterlimit="10"/>
<path d="M0.585938 398.25C0.585937 547.73 125.684 668.914 280 668.914C434.316 668.914 559.414 547.73 559.414 398.25" stroke="#237CFF" stroke-miterlimit="10"/>
<path d="M0.585938 397.188C0.585937 543.959 125.684 662.938 280 662.938C434.316 662.938 559.414 543.959 559.414 397.188" stroke="#237CFF" stroke-miterlimit="10"/>
<path d="M0.585938 396.141C0.585937 540.191 125.684 656.977 280 656.977C434.316 656.977 559.414 540.203 559.414 396.141" stroke="#237CFF" stroke-miterlimit="10"/>
<path d="M0.585938 395.094C0.585937 536.436 125.684 651.017 280 651.017C434.316 651.017 559.414 536.436 559.414 395.094" stroke="#237CFF" stroke-miterlimit="10"/>
<path d="M0.585938 394.031C0.585937 532.664 125.684 645.041 280 645.041C434.316 645.041 559.414 532.664 559.414 394.031" stroke="#237CFF" stroke-miterlimit="10"/>
<path d="M0.585938 392.984C0.585937 528.897 125.684 639.081 280 639.081C434.316 639.081 559.414 528.897 559.414 392.984" stroke="#237CFF" stroke-miterlimit="10"/>
<path d="M0.585938 391.922C0.585937 525.125 125.684 633.105 280 633.105C434.316 633.105 559.414 525.125 559.414 391.922" stroke="#237CFF" stroke-miterlimit="10"/>
<path d="M0.585938 390.875C0.585937 521.358 125.684 627.144 280 627.144C434.316 627.144 559.414 521.369 559.414 390.875" stroke="#237CFF" stroke-miterlimit="10"/>
<path d="M0.585938 389.828C0.585937 517.602 125.684 621.184 280 621.184C434.316 621.184 559.414 517.602 559.414 389.828" stroke="#237CFF" stroke-miterlimit="10"/>
<path d="M0.585938 388.766C0.585937 513.819 125.684 615.208 280 615.208C434.316 615.208 559.414 513.831 559.414 388.766" stroke="#237CFF" stroke-miterlimit="10"/>
<path d="M0.585938 387.719C0.585937 510.063 125.684 609.247 280 609.247C434.316 609.247 559.414 510.063 559.414 387.719" stroke="#237CFF" stroke-miterlimit="10"/>
<path d="M0.585938 386.656C0.585937 506.292 125.684 603.271 280 603.271C434.316 603.271 559.414 506.292 559.414 386.656" stroke="#237CFF" stroke-miterlimit="10"/>
<path d="M0.585938 385.609C0.585937 502.524 125.684 597.311 280 597.311C434.316 597.311 559.414 502.536 559.414 385.609" stroke="#237CFF" stroke-miterlimit="10"/>
<path d="M0.585938 384.547C0.585937 498.753 125.684 591.335 280 591.335C434.316 591.335 559.414 498.753 559.414 384.547" stroke="#237CFF" stroke-miterlimit="10"/>
<path d="M0.585938 383.508C0.585937 494.993 125.684 585.383 280 585.383C434.316 585.383 559.414 495.005 559.414 383.508" stroke="#237CFF" stroke-miterlimit="10"/>
<path d="M0.585938 382.445C0.585937 491.222 125.684 579.407 280 579.407C434.316 579.407 559.414 491.222 559.414 382.445" stroke="#237CFF" stroke-miterlimit="10"/>
<path d="M0.585938 381.391C0.585937 487.458 125.684 573.438 280 573.438C434.316 573.438 559.414 487.458 559.414 381.391" stroke="#237CFF" stroke-miterlimit="10"/>
<path d="M0.585938 380.344C0.585937 483.691 125.684 567.466 280 567.466C434.316 567.466 559.414 483.691 559.414 380.344" stroke="#237CFF" stroke-miterlimit="10"/>
<path d="M0.585938 379.281C0.585937 479.92 125.684 561.491 280 561.491C434.316 561.491 559.414 479.908 559.414 379.281" stroke="#237CFF" stroke-miterlimit="10"/>
<path d="M0.585938 378.234C0.585937 476.152 125.684 555.53 280 555.53C434.316 555.53 559.414 476.152 559.414 378.234" stroke="#237CFF" stroke-miterlimit="10"/>
<path d="M0.585938 377.188C0.585937 472.396 125.684 549.57 280 549.57C434.316 549.57 559.414 472.385 559.414 377.188" stroke="#237CFF" stroke-miterlimit="10"/>
<path d="M0.585938 376.125C0.585937 468.613 125.684 543.594 280 543.594C434.316 543.594 559.414 468.613 559.414 376.125" stroke="#237CFF" stroke-miterlimit="10"/>
<path d="M0.585938 375.078C0.585937 464.858 125.684 537.633 280 537.633C434.316 537.633 559.414 464.858 559.414 375.078" stroke="#237CFF" stroke-miterlimit="10"/>
<path d="M0.585938 374.016C0.585937 461.086 125.684 531.657 280 531.657C434.316 531.657 559.414 461.074 559.414 374.016" stroke="#237CFF" stroke-miterlimit="10"/>
<path d="M0.585938 372.969C0.585937 457.319 125.684 525.697 280 525.697C434.316 525.697 559.414 457.319 559.414 372.969" stroke="#237CFF" stroke-miterlimit="10"/>
<path d="M0.585938 371.922C0.585937 453.563 125.684 519.737 280 519.737C434.316 519.737 559.414 453.551 559.414 371.922" stroke="#237CFF" stroke-miterlimit="10"/>
<path d="M0.585938 370.859C0.585937 449.78 125.684 513.761 280 513.761C434.316 513.761 559.414 449.78 559.414 370.859" stroke="#237CFF" stroke-miterlimit="10"/>
<path d="M0.585938 369.812C0.585937 446.024 125.684 507.8 280 507.8C434.316 507.8 559.414 446.024 559.414 369.813" stroke="#237CFF" stroke-miterlimit="10"/>
<path d="M0.585938 368.75C0.585937 442.241 125.684 501.824 280 501.824C434.316 501.824 559.414 442.241 559.414 368.75" stroke="#237CFF" stroke-miterlimit="10"/>
<path d="M0.585938 367.703C0.585937 438.485 125.684 495.864 280 495.864C434.316 495.864 559.414 438.485 559.414 367.703" stroke="#237CFF" stroke-miterlimit="10"/>
<path d="M0.585938 366.641C0.585937 434.714 125.684 489.888 280 489.888C434.316 489.888 559.414 434.702 559.414 366.641" stroke="#237CFF" stroke-miterlimit="10"/>
<path d="M0.585938 365.594C0.585937 430.946 125.684 483.928 280 483.928C434.316 483.928 559.414 430.946 559.414 365.594" stroke="#237CFF" stroke-miterlimit="10"/>
<path d="M0.585938 364.547C0.585937 427.191 125.684 477.967 280 477.967C434.316 477.967 559.414 427.191 559.414 364.547" stroke="#237CFF" stroke-miterlimit="10"/>
<path d="M0.585938 363.484C0.585937 423.408 125.684 471.991 280 471.991C434.316 471.991 559.414 423.408 559.414 363.484" stroke="#237CFF" stroke-miterlimit="10"/>
<path d="M0.585938 362.438C0.585937 419.652 125.684 466.031 280 466.031C434.316 466.031 559.414 419.652 559.414 362.438" stroke="#237CFF" stroke-miterlimit="10"/>
<path d="M0.585938 361.375C0.585937 415.869 125.684 460.055 280 460.055C434.316 460.055 559.414 415.869 559.414 361.375" stroke="#237CFF" stroke-miterlimit="10"/>
<path d="M0.585938 360.328C0.585937 412.113 125.684 454.095 280 454.095C434.316 454.095 559.414 412.113 559.414 360.328" stroke="#237CFF" stroke-miterlimit="10"/>
<path d="M0.585938 359.281C0.585937 408.357 125.684 448.134 280 448.134C434.316 448.134 559.414 408.357 559.414 359.281" stroke="#237CFF" stroke-miterlimit="10"/>
<path d="M0.585938 358.219C0.585937 404.574 125.684 442.158 280 442.158C434.316 442.158 559.414 404.574 559.414 358.219" stroke="#237CFF" stroke-miterlimit="10"/>
<path d="M0.585938 357.172C0.585937 400.819 125.684 436.198 280 436.198C434.316 436.198 559.414 400.819 559.414 357.172" stroke="#237CFF" stroke-miterlimit="10"/>
<path d="M0.585938 356.109C0.585937 397.035 125.684 430.222 280 430.222C434.316 430.222 559.414 397.035 559.414 356.109" stroke="#237CFF" stroke-miterlimit="10"/>
<path d="M0.585938 355.062C0.585937 393.28 125.684 424.262 280 424.262C434.316 424.262 559.414 393.28 559.414 355.063" stroke="#237CFF" stroke-miterlimit="10"/>
<path d="M0.585938 354.016C0.585937 389.524 125.684 418.301 280 418.301C434.316 418.301 559.414 389.524 559.414 354.016" stroke="#237CFF" stroke-miterlimit="10"/>
<path d="M0.585938 352.953C0.585937 385.741 125.684 412.325 280 412.325C434.316 412.325 559.414 385.741 559.414 352.953" stroke="#237CFF" stroke-miterlimit="10"/>
<path d="M0.585938 351.906C0.585937 381.985 125.684 406.365 280 406.365C434.316 406.365 559.414 381.985 559.414 351.906" stroke="#237CFF" stroke-miterlimit="10"/>
<path d="M0.585938 350.844C0.585937 378.202 125.684 400.389 280 400.389C434.316 400.389 559.414 378.214 559.414 350.844" stroke="#237CFF" stroke-miterlimit="10"/>
<path d="M0.585938 349.797C0.585937 374.446 125.684 394.429 280 394.429C434.316 394.429 559.414 374.446 559.414 349.797" stroke="#237CFF" stroke-miterlimit="10"/>
<path d="M0.585938 348.734C0.585937 370.663 125.684 388.453 280 388.453C434.316 388.453 559.414 370.675 559.414 348.734" stroke="#237CFF" stroke-miterlimit="10"/>
<path d="M0.585938 347.688C0.585937 366.908 125.684 382.492 280 382.492C434.316 382.492 559.414 366.908 559.414 347.688" stroke="#237CFF" stroke-miterlimit="10"/>
<path d="M0.585938 346.641C0.585937 363.152 125.684 376.532 280 376.532C434.316 376.532 559.414 363.152 559.414 346.641" stroke="#237CFF" stroke-miterlimit="10"/>
<path d="M0.585938 345.578C0.585937 359.369 125.684 370.556 280 370.556C434.316 370.556 559.414 359.38 559.414 345.578" stroke="#237CFF" stroke-miterlimit="10"/>
<path d="M0.585938 344.531C0.585937 355.613 125.684 364.596 280 364.596C434.316 364.596 559.414 355.613 559.414 344.531" stroke="#237CFF" stroke-miterlimit="10"/>
<path d="M0.585938 343.469C0.585937 351.83 125.684 358.62 280 358.62C434.316 358.62 559.414 351.842 559.414 343.469" stroke="#237CFF" stroke-miterlimit="10"/>
<path d="M0.585938 342.422C0.585937 348.074 125.684 352.659 280 352.659C434.316 352.659 559.414 348.074 559.414 342.422" stroke="#237CFF" stroke-miterlimit="10"/>
<path d="M0.585938 341.375C0.585937 344.307 125.684 346.699 280 346.699C434.316 346.699 559.414 344.318 559.414 341.375" stroke="#237CFF" stroke-miterlimit="10"/>
<path d="M0.585938 340.312C0.585938 340.535 125.684 340.711 280 340.711C434.316 340.711 559.414 340.535 559.414 340.313" stroke="#237CFF" stroke-miterlimit="10"/>
<path d="M0.585937 339.265C0.585937 336.779 125.684 334.75 280 334.75C434.316 334.75 559.414 336.767 559.414 339.265" stroke="#237CFF" stroke-miterlimit="10"/>
<path d="M0.585937 338.194C0.585937 332.987 125.684 328.766 280 328.766C434.316 328.766 559.414 332.987 559.414 338.194" stroke="#237CFF" stroke-miterlimit="10"/>
<path d="M0.585937 337.146C0.585937 329.231 125.684 322.805 280 322.805C434.316 322.805 559.414 329.219 559.414 337.146" stroke="#237CFF" stroke-miterlimit="10"/>
<path d="M0.585937 336.115C0.585937 325.478 125.684 316.859 280 316.859C434.316 316.859 559.414 325.478 559.414 336.115" stroke="#237CFF" stroke-miterlimit="10"/>
<path d="M0.585937 335.051C0.585937 321.707 125.684 310.883 280 310.883C434.316 310.883 559.414 321.707 559.414 335.051" stroke="#237CFF" stroke-miterlimit="10"/>
<path d="M0.585937 333.988C0.585937 317.935 125.684 304.906 280 304.906C434.316 304.906 559.414 317.923 559.414 333.988" stroke="#237CFF" stroke-miterlimit="10"/>
<path d="M0.585937 332.949C0.585937 314.174 125.684 298.953 280 298.953C434.316 298.953 559.414 314.174 559.414 332.949" stroke="#237CFF" stroke-miterlimit="10"/>
<path d="M0.585937 331.886C0.585937 310.402 125.684 292.977 280 292.977C434.316 292.977 559.414 310.391 559.414 331.886" stroke="#237CFF" stroke-miterlimit="10"/>
<path d="M0.585937 330.823C0.585937 306.619 125.684 287 280 287C434.316 287 559.414 306.619 559.414 330.823" stroke="#237CFF" stroke-miterlimit="10"/>
<path d="M0.585937 329.783C0.585937 302.87 125.684 281.047 280 281.047C434.316 281.047 559.414 302.87 559.414 329.783" stroke="#237CFF" stroke-miterlimit="10"/>
<path d="M0.585937 328.743C0.585937 299.11 125.684 275.094 280 275.094C434.316 275.094 559.414 299.11 559.414 328.743" stroke="#237CFF" stroke-miterlimit="10"/>
<path d="M0.585937 327.672C0.585937 295.33 125.684 269.109 280 269.109C434.316 269.109 559.414 295.33 559.414 327.672" stroke="#237CFF" stroke-miterlimit="10"/>
<path d="M0.585937 326.617C0.585937 291.566 125.684 263.141 280 263.141C434.316 263.141 559.414 291.554 559.414 326.617" stroke="#237CFF" stroke-miterlimit="10"/>
<path d="M0.585937 325.57C0.585937 287.798 125.684 257.18 280 257.18C434.316 257.18 559.414 287.798 559.414 325.57" stroke="#237CFF" stroke-miterlimit="10"/>
<path d="M0.585937 324.522C0.585937 284.042 125.684 251.219 280 251.219C434.316 251.219 559.414 284.042 559.414 324.522" stroke="#237CFF" stroke-miterlimit="10"/>
<path d="M0.585937 323.467C0.585937 280.266 125.684 245.25 280 245.25C434.316 245.25 559.414 280.266 559.414 323.467" stroke="#237CFF" stroke-miterlimit="10"/>
<path d="M0.585937 322.396C0.585937 276.486 125.684 239.266 280 239.266C434.316 239.266 559.414 276.486 559.414 322.396" stroke="#237CFF" stroke-miterlimit="10"/>
<path d="M0.585937 321.364C0.585937 272.734 125.684 233.32 280 233.32C434.316 233.32 559.414 272.734 559.414 321.364" stroke="#237CFF" stroke-miterlimit="10"/>
<path d="M0.585937 320.301C0.585937 268.962 125.684 227.344 280 227.344C434.316 227.344 559.414 268.962 559.414 320.301" stroke="#237CFF" stroke-miterlimit="10"/>
<path d="M0.585937 319.23C0.585937 265.182 125.684 221.359 280 221.359C434.316 221.359 559.414 265.182 559.414 319.23" stroke="#237CFF" stroke-miterlimit="10"/>
<path d="M0.585937 318.191C0.585937 261.422 125.684 215.406 280 215.406C434.316 215.406 559.414 261.422 559.414 318.191" stroke="#237CFF" stroke-miterlimit="10"/>
<path d="M0.585937 317.151C0.585937 257.673 125.684 209.453 280 209.453C434.316 209.453 559.414 257.673 559.414 317.151" stroke="#237CFF" stroke-miterlimit="10"/>
<path d="M0.585937 316.08C0.585937 253.882 125.684 203.469 280 203.469C434.316 203.469 559.414 253.882 559.414 316.08" stroke="#237CFF" stroke-miterlimit="10"/>
<path d="M0.585937 315.025C0.585937 250.118 125.684 197.5 280 197.5C434.316 197.5 559.414 250.118 559.414 315.025" stroke="#237CFF" stroke-miterlimit="10"/>
<path d="M0.585937 313.985C0.585937 246.369 125.684 191.547 280 191.547C434.316 191.547 559.414 246.369 559.414 313.985" stroke="#237CFF" stroke-miterlimit="10"/>
<path d="M0.585937 312.914C0.585937 242.578 125.684 185.563 280 185.563C434.316 185.563 559.414 242.578 559.414 312.914" stroke="#237CFF" stroke-miterlimit="10"/>
<path d="M0.585937 311.875C0.585937 238.829 125.684 179.609 280 179.609C434.316 179.609 559.414 238.829 559.414 311.875" stroke="#237CFF" stroke-miterlimit="10"/>
<path d="M0.585937 310.819C0.585937 235.053 125.684 173.641 280 173.641C434.316 173.641 559.414 235.053 559.414 310.819" stroke="#237CFF" stroke-miterlimit="10"/>
<path d="M0.585937 309.772C0.585937 231.297 125.684 167.68 280 167.68C434.316 167.68 559.414 231.297 559.414 309.772" stroke="#237CFF" stroke-miterlimit="10"/>
<path d="M0.585937 308.709C0.585937 227.513 125.684 161.703 280 161.703C434.316 161.703 559.414 227.525 559.414 308.709" stroke="#237CFF" stroke-miterlimit="10"/>
<path d="M0.585937 307.654C0.585937 223.749 125.684 155.734 280 155.734C434.316 155.734 559.414 223.749 559.414 307.654" stroke="#237CFF" stroke-miterlimit="10"/>
<path d="M0.585937 306.626C0.585937 220.001 125.684 149.781 280 149.781C434.316 149.781 559.414 220.001 559.414 306.614" stroke="#237CFF" stroke-miterlimit="10"/>
<path d="M0.585937 305.555C0.585937 216.221 125.684 143.797 280 143.797C434.316 143.797 559.414 216.209 559.414 305.543" stroke="#237CFF" stroke-miterlimit="10"/>
<path d="M0.585937 304.503C0.585937 212.461 125.684 137.844 280 137.844C434.316 137.844 559.414 212.461 559.414 304.503" stroke="#237CFF" stroke-miterlimit="10"/>
<path d="M0.585937 303.448C0.585937 208.685 125.684 131.875 280 131.875C434.316 131.875 559.414 208.696 559.414 303.448" stroke="#237CFF" stroke-miterlimit="10"/>
<path d="M0.585937 302.393C0.585937 204.921 125.684 125.906 280 125.906C434.316 125.906 559.414 204.921 559.414 302.393" stroke="#237CFF" stroke-miterlimit="10"/>
<path d="M0.585937 301.322C0.585937 201.141 125.684 119.922 280 119.922C434.316 119.922 559.414 201.141 559.414 301.322" stroke="#237CFF" stroke-miterlimit="10"/>
<path d="M0.585937 300.294C0.585937 197.392 125.684 113.969 280 113.969C434.316 113.969 559.414 197.392 559.414 300.282" stroke="#237CFF" stroke-miterlimit="10"/>
<path d="M0.585937 299.239C0.585937 193.616 125.684 108 280 108C434.316 108 559.414 193.616 559.414 299.239" stroke="#237CFF" stroke-miterlimit="10"/>
<path d="M0.585937 298.183C0.585937 189.852 125.684 102.031 280 102.031C434.316 102.031 559.414 189.852 559.414 298.183" stroke="#237CFF" stroke-miterlimit="10"/>
<path d="M0.585937 297.116C0.585937 186.077 125.684 96.0625 280 96.0625C434.316 96.0625 559.414 186.077 559.414 297.128" stroke="#237CFF" stroke-miterlimit="10"/>
<path d="M0.585937 296.077C0.585937 182.328 125.684 90.1094 280 90.1094C434.316 90.1094 559.414 182.328 559.414 296.088" stroke="#237CFF" stroke-miterlimit="10"/>
<path d="M0.585937 295.025C0.585937 178.544 125.684 84.1328 280 84.1328C434.316 84.1328 559.414 178.556 559.414 295.025" stroke="#237CFF" stroke-miterlimit="10"/>
<path d="M0.585937 293.962C0.585937 174.772 125.684 78.1563 280 78.1563C434.316 78.1563 559.414 174.772 559.414 293.962" stroke="#237CFF" stroke-miterlimit="10"/>
<path d="M0.585937 292.923C0.585937 171.024 125.684 72.2031 280 72.2031C434.316 72.2031 559.414 171.024 559.414 292.923" stroke="#237CFF" stroke-miterlimit="10"/>
<path d="M0.585937 291.868C0.585937 167.26 125.684 66.2344 280 66.2344C434.316 66.2344 559.414 167.248 559.414 291.868" stroke="#237CFF" stroke-miterlimit="10"/>
<path d="M0.585937 290.797C0.585937 163.468 125.684 60.25 280 60.25C434.316 60.25 559.414 163.468 559.414 290.797" stroke="#237CFF" stroke-miterlimit="10"/>
<path d="M0.585937 289.745C0.585937 159.708 125.684 54.2969 280 54.2969C434.316 54.2969 559.414 159.72 559.414 289.757" stroke="#237CFF" stroke-miterlimit="10"/>
<path d="M0.585937 288.717C0.585937 155.96 125.684 48.3438 280 48.3438C434.316 48.3438 559.414 155.96 559.414 288.717" stroke="#237CFF" stroke-miterlimit="10"/>
<path d="M0.585937 287.647C0.585937 152.18 125.684 42.3594 280 42.3594C434.316 42.3594 559.414 152.18 559.414 287.647" stroke="#237CFF" stroke-miterlimit="10"/>
<path d="M0.585937 286.591C0.585937 148.404 125.684 36.3906 280 36.3906C434.316 36.3906 559.414 148.404 559.414 286.591" stroke="#237CFF" stroke-miterlimit="10"/>
<path d="M0.585937 285.552C0.585937 144.655 125.684 30.4375 280 30.4375C434.316 30.4375 559.414 144.655 559.414 285.552" stroke="#237CFF" stroke-miterlimit="10"/>
<path d="M0.585937 284.48C0.585937 140.876 125.684 24.4531 280 24.4531C434.316 24.4531 559.414 140.876 559.414 284.48" stroke="#237CFF" stroke-miterlimit="10"/>
<path d="M0.585937 283.429C0.585937 137.115 125.684 18.5 280 18.5C434.316 18.5 559.414 137.115 559.414 283.441" stroke="#237CFF" stroke-miterlimit="10"/>
<path d="M0.585937 282.37C0.585937 133.324 125.684 12.5156 280 12.5156C434.316 12.5156 559.414 133.335 559.414 282.37" stroke="#237CFF" stroke-miterlimit="10"/>
<path d="M0.585937 281.346C0.585937 129.591 125.684 6.57813 280 6.57813C434.316 6.57813 559.414 129.591 559.414 281.346" stroke="#237CFF" stroke-miterlimit="10"/>
<path d="M0.585937 280.275C0.585937 125.811 125.684 0.59375 280 0.59375C434.316 0.59375 559.414 125.811 559.414 280.275" stroke="#237CFF" stroke-miterlimit="10"/>
</g>
</svg>
