<svg width="112" height="112" viewBox="0 0 112 112" fill="none" xmlns="http://www.w3.org/2000/svg">
<mask id="mask0_5299_16108" style="mask-type:luminance" maskUnits="userSpaceOnUse" x="11" y="46" width="90" height="21">
<path d="M101 46H11V66.2251H101V46Z" fill="white"/>
</mask>
<g mask="url(#mask0_5299_16108)">
<path fill-rule="evenodd" clip-rule="evenodd" d="M84.2767 52.065C84.6207 52.6585 84.7333 53.3338 84.7704 54.093L84.8193 55.1049V62.1807L84.8692 63.1937C84.969 64.848 86.189 66.0711 87.856 66.1752L88.8637 66.2251V55.1049L88.9136 54.093C88.955 53.3423 89.0665 52.6543 89.4158 52.0565C89.7718 51.4433 90.2828 50.9346 90.8975 50.5814C91.5123 50.2282 92.2091 50.043 92.9181 50.0443C93.6271 50.0456 94.3233 50.2333 94.9367 50.5888C95.5502 50.9442 96.0593 51.4548 96.413 52.0692C96.7571 52.6628 96.8643 53.3508 96.9057 54.093L96.9556 55.1017V62.1807L97.0055 63.1937C97.1096 64.8564 98.32 66.0796 99.9924 66.1752L101 66.2251V54.093C101 51.9477 100.148 49.8903 98.6314 48.373C97.1147 46.8558 95.0576 46.003 92.9123 46.0021C91.7641 46.0009 90.6288 46.2448 89.5824 46.7173C88.5359 47.1899 87.6024 47.8804 86.8441 48.7426C86.0855 47.8807 85.1519 47.1904 84.1056 46.7177C83.0592 46.245 81.9241 46.0007 80.776 46.0011C79.0962 46.0011 77.5375 46.5107 76.2463 47.391C75.4585 46.5118 73.6959 46.0011 72.684 46.0011V66.2251L73.6959 66.1752C75.3884 66.0637 76.6116 64.8734 76.6774 63.1937L76.7316 62.1807V55.1049L76.7815 54.093C76.824 53.3296 76.9301 52.6585 77.2752 52.0607C77.6315 51.448 78.1423 50.9394 78.7565 50.5857C79.3708 50.2321 80.0672 50.0458 80.776 50.0454C81.4853 50.0456 82.1822 50.2323 82.7966 50.5867C83.411 50.9412 83.9215 51.451 84.2767 52.065ZM15.0444 66.1763L16.0563 66.2251H31.224L31.1741 65.2164C31.0372 63.5536 29.8596 62.3389 28.1915 62.2306L27.1797 62.1807H18.0801L30.2121 50.0444L30.1622 49.0367C30.0837 47.357 28.8562 46.1433 27.1797 46.051L26.1678 46.0053L11 46.0011L11.0499 47.013C11.1826 48.6598 12.3772 49.9 14.0314 49.9955L15.0444 50.0454H24.144L12.0119 62.1818L12.0618 63.1937C12.1616 64.8607 13.3646 66.068 15.0444 66.1752V66.1763ZM68.714 48.9614C69.6531 49.9003 70.3981 51.0151 70.9064 52.242C71.4147 53.4689 71.6763 54.784 71.6763 56.112C71.6763 57.4401 71.4147 58.7551 70.9064 59.982C70.3981 61.2089 69.6531 62.3237 68.714 63.2627C66.8165 65.1586 64.244 66.2236 61.5617 66.2236C58.8794 66.2236 56.3069 65.1586 54.4094 63.2627C50.4606 59.3139 50.4606 52.9102 54.4094 48.9614C55.3477 48.0227 56.4617 47.2781 57.6878 46.7699C58.9139 46.2618 60.2281 46.0002 61.5553 46C62.8847 45.9991 64.2012 46.2602 65.4295 46.7686C66.6579 47.2769 67.774 48.0214 68.714 48.9614ZM65.8524 51.825C66.9898 52.9633 67.6287 54.5066 67.6287 56.1157C67.6287 57.7249 66.9898 59.2682 65.8524 60.4065C64.7141 61.5439 63.1708 62.1828 61.5617 62.1828C59.9525 62.1828 58.4092 61.5439 57.271 60.4065C56.1336 59.2682 55.4946 57.7249 55.4946 56.1157C55.4946 54.5066 56.1336 52.9633 57.271 51.825C58.4092 50.6876 59.9525 50.0487 61.5617 50.0487C63.1708 50.0487 64.7141 50.6876 65.8524 51.825ZM40.3321 46C41.6594 46.0003 42.9736 46.2621 44.1997 46.7704C45.4258 47.2787 46.5398 48.0236 47.478 48.9624C51.4279 52.9102 51.4279 59.3149 47.478 63.2627C45.5806 65.1586 43.008 66.2236 40.3258 66.2236C37.6435 66.2236 35.0709 65.1586 33.1735 63.2627C29.2247 59.3139 29.2247 52.9102 33.1735 48.9614C34.1118 48.0227 35.2258 47.2781 36.4519 46.7699C37.678 46.2618 38.9922 46.0002 40.3194 46H40.3321ZM44.6165 51.8229C45.7542 52.9612 46.3933 54.5047 46.3933 56.1141C46.3933 57.7236 45.7542 59.2671 44.6165 60.4054C43.4782 61.5428 41.9349 62.1817 40.3258 62.1817C38.7166 62.1817 37.1733 61.5428 36.035 60.4054C34.8976 59.2671 34.2587 57.7238 34.2587 56.1147C34.2587 54.5055 34.8976 52.9622 36.035 51.824C37.1733 50.6865 38.7166 50.0476 40.3258 50.0476C41.9349 50.0476 43.4782 50.6865 44.6165 51.824V51.8229Z" fill="white"/>
</g>
</svg>
