<svg width="112" height="112" viewBox="0 0 112 112" fill="none" xmlns="http://www.w3.org/2000/svg">
<mask id="mask0_5299_16068" style="mask-type:luminance" maskUnits="userSpaceOnUse" x="24" y="46" width="64" height="20">
<path d="M88 46H24V66H88V46Z" fill="white"/>
</mask>
<g mask="url(#mask0_5299_16068)">
<path d="M48.6698 46H45.6099V49.2034H48.6698V46ZM87.8698 62.3001V54.6488C87.8698 50.1761 85.0706 48.1808 78.7908 48.1808C73.5143 48.1808 70.3651 50.5534 70.3651 54.5274H73.4503C73.4503 52.1486 75.0976 51.0893 78.7908 51.0893C83.2526 51.0893 84.8357 52.0784 84.8357 54.8673C83.7455 55.0137 82.7107 55.1437 81.6993 55.2694C74.1161 56.2176 69.5394 56.7906 69.5394 61.1789C69.5394 62.9 70.1986 64.1203 71.5556 64.9077C72.7698 65.6125 74.9333 66 77.6472 66C81.3025 66 84.3451 65.1115 85.2176 63.7904C85.1388 64.9921 85.2176 65.7383 85.2176 65.7445H88.0001C87.9958 65.7321 87.8698 64.3635 87.8698 62.3001ZM84.8357 58.6972C84.8357 60.5625 84.1743 61.8425 82.813 62.6073C81.5967 63.2916 79.7682 63.6111 77.0627 63.6111C75.4048 63.6111 72.6247 63.2916 72.6247 61.1541C72.6247 60.1112 73.3501 59.4743 75.1275 58.959C77.0436 58.4024 80.2633 57.9715 84.838 57.4604V58.6972H84.8357ZM72.7783 61.1171H72.7018V61.1891H72.7783V61.1171ZM34.9843 46H24V65.7445H27.0598V58.7199H34.9843C42.3862 58.7199 43.1863 54.2719 43.1863 52.361C43.1841 50.4483 42.3838 46 34.9843 46ZM34.4317 55.7889H27.0598V48.9312H34.4338C38.266 48.9312 39.9003 49.9556 39.9003 52.359C39.8983 54.7624 38.2638 55.7889 34.4317 55.7889ZM69.1426 48.3004H64.9051L54.3454 56.4897V46H51.2857V65.7445H54.3454V57.4089L65.0031 65.7445H69.4412L58.0581 56.7328L69.1426 48.3004ZM48.6698 50.5884H45.6099V65.7445H48.6698V50.5884Z" fill="white"/>
</g>
</svg>
