<svg width="112" height="112" viewBox="0 0 112 112" fill="none" xmlns="http://www.w3.org/2000/svg">
<mask id="mask0_5299_16081" style="mask-type:luminance" maskUnits="userSpaceOnUse" x="4" y="48" width="103" height="16">
<path d="M106.481 48.6885H4.51953V64H106.481V48.6885Z" fill="white"/>
</mask>
<g mask="url(#mask0_5299_16081)">
<path fill-rule="evenodd" clip-rule="evenodd" d="M9.04337 48.6885H4.51953V64H9.04337V63.6912L9.11029 63.7581L14.7012 58.1673L20.292 63.7581L20.3589 63.6912V64H24.8827V48.6885H20.3589V57.4274L17.8101 54.8786L14.7012 57.9875L11.5923 54.8786L9.04337 57.4274V48.6885Z" fill="white"/>
<path d="M31.6432 60.5206L29.4258 52.771H31.2156L32.4984 58.1556H32.5627L33.9779 52.771H35.5104L36.9219 58.1669H36.99L38.2727 52.771H40.0627L37.8452 60.5206H36.2483L34.7726 55.4538H34.712L33.2401 60.5206H31.6432ZM49.3289 56.6458C49.3289 57.4909 49.1685 58.2098 48.8483 58.8026C48.5303 59.3954 48.0963 59.8483 47.5465 60.1611C46.9991 60.4714 46.3835 60.6265 45.7001 60.6265C45.0114 60.6265 44.393 60.4701 43.8457 60.1573C43.2983 59.8445 42.8657 59.3917 42.548 58.7988C42.2299 58.206 42.0713 57.4883 42.0713 56.6458C42.0713 55.8007 42.2299 55.0817 42.548 54.4889C42.8657 53.8961 43.2983 53.4445 43.8457 53.1343C44.393 52.8215 45.0114 52.665 45.7001 52.665C46.3835 52.665 46.9991 52.8215 47.5465 53.1343C48.0963 53.4445 48.5303 53.8961 48.8483 54.4889C49.1685 55.0817 49.3289 55.8007 49.3289 56.6458ZM47.6676 56.6458C47.6676 56.0984 47.5855 55.6367 47.4216 55.2609C47.2601 54.885 47.0318 54.5999 46.7367 54.4057C46.4416 54.2114 46.0961 54.1143 45.7001 54.1143C45.3037 54.1143 44.9582 54.2114 44.6631 54.4057C44.368 54.5999 44.1383 54.885 43.9744 55.2609C43.8129 55.6367 43.7322 56.0984 43.7322 56.6458C43.7322 57.1932 43.8129 57.6548 43.9744 58.0307C44.1383 58.4066 44.368 58.6916 44.6631 58.8859C44.9582 59.0801 45.3037 59.1773 45.7001 59.1773C46.0961 59.1773 46.4416 59.0801 46.7367 58.8859C47.0318 58.6916 47.2601 58.4066 47.4216 58.0307C47.5855 57.6548 47.6676 57.1932 47.6676 56.6458ZM52.2475 60.5206V52.771H55.3049C55.8902 52.771 56.3896 52.8757 56.8033 53.0851C57.2195 53.2919 57.5362 53.5858 57.753 53.9667C57.9726 54.3451 58.0822 54.7904 58.0822 55.3025C58.0822 55.8171 57.9712 56.2598 57.7492 56.6306C57.5272 56.999 57.2056 57.2815 56.7842 57.4782C56.3656 57.675 55.8585 57.7734 55.2631 57.7734H53.2159V56.4566H54.9983C55.3112 56.4566 55.5708 56.4137 55.7778 56.3279C55.9845 56.2421 56.1387 56.1135 56.2396 55.942C56.3429 55.7704 56.3944 55.5573 56.3944 55.3025C56.3944 55.0452 56.3429 54.8282 56.2396 54.6516C56.1387 54.4751 55.9835 54.3413 55.774 54.2505C55.5673 54.1572 55.3059 54.1105 54.9907 54.1105H53.8858V60.5206H52.2475ZM56.4324 56.9939L58.3585 60.5206H56.5497L54.6653 56.9939H56.4324ZM63.6921 60.5206H60.9451V52.771H63.7147C64.4942 52.771 65.1655 52.9261 65.7278 53.2364C66.2905 53.5442 66.7231 53.9869 67.0258 54.5646C67.331 55.1423 67.4838 55.8335 67.4838 56.6382C67.4838 57.4455 67.331 58.1392 67.0258 58.7194C66.7231 59.2996 66.2881 59.7449 65.7205 60.0551C65.1554 60.3654 64.4793 60.5206 63.6921 60.5206ZM62.5834 59.1167H63.6239C64.1083 59.1167 64.5158 59.0309 64.8464 58.8594C65.1794 58.6853 65.4289 58.4167 65.5956 58.0534C65.7644 57.6876 65.8489 57.2159 65.8489 56.6382C65.8489 56.0656 65.7644 55.5976 65.5956 55.2344C65.4289 54.8711 65.1804 54.6037 64.8502 54.4322C64.5196 54.2606 64.1121 54.1749 63.6277 54.1749H62.5834V59.1167ZM71.8552 60.5206L69.6378 52.771H71.4279L72.7106 58.1556H72.7749L74.1902 52.771H75.7224L77.1338 58.1669H77.202L78.4847 52.771H80.2748L78.0574 60.5206H76.4605L74.9847 55.4538H74.9241L73.4521 60.5206H71.8552ZM83.4119 60.5206H81.6559L84.3313 52.771H86.4429L89.1144 60.5206H87.3584L85.4173 54.5419H85.3568L83.4119 60.5206ZM83.3019 57.4745H87.4492V58.7534H83.3019V57.4745ZM91.7518 60.5206V52.771H94.8092C95.3945 52.771 95.8939 52.8757 96.3076 53.0851C96.7238 53.2919 97.0405 53.5858 97.2576 53.9667C97.4769 54.3451 97.5868 54.7904 97.5868 55.3025C97.5868 55.8171 97.4758 56.2598 97.2538 56.6306C97.0318 56.999 96.7103 57.2815 96.2888 57.4782C95.8702 57.675 95.3632 57.7734 94.7678 57.7734H92.7206V56.4566H94.503C94.8155 56.4566 95.0754 56.4137 95.2825 56.3279C95.4892 56.2421 95.643 56.1135 95.7439 55.942C95.8473 55.7704 95.8991 55.5573 95.8991 55.3025C95.8991 55.0452 95.8473 54.8282 95.7439 54.6516C95.643 54.4751 95.4878 54.3413 95.2786 54.2505C95.0716 54.1572 94.8106 54.1105 94.4953 54.1105H93.3905V60.5206H91.7518ZM95.937 56.9939L97.8628 60.5206H96.0543L94.1699 56.9939H95.937ZM100.449 60.5206V52.771H105.671V54.1219H102.088V55.9685H105.402V57.3193H102.088V59.1697H105.686V60.5206H100.449Z" fill="white"/>
</g>
</svg>
