<svg width="112" height="112" viewBox="0 0 112 112" fill="none" xmlns="http://www.w3.org/2000/svg">
<mask id="mask0_5299_16169" style="mask-type:luminance" maskUnits="userSpaceOnUse" x="9" y="42" width="95" height="27">
<path d="M103.837 42H9.16797V69H103.837V42Z" fill="white"/>
</mask>
<g mask="url(#mask0_5299_16169)">
<mask id="mask1_5299_16169" style="mask-type:luminance" maskUnits="userSpaceOnUse" x="9" y="42" width="95" height="27">
<path d="M103.777 42.0156H9.19531V68.9956H103.777V42.0156Z" fill="white"/>
</mask>
<g mask="url(#mask1_5299_16169)">
<path d="M70.3358 62.4747C69.6679 63.1645 68.6596 63.6913 67.2575 63.6913C65.8554 63.6913 64.8686 63.1645 64.201 62.4747C63.2292 61.4658 62.9844 60.1676 62.9844 58.4243C62.9844 56.7033 63.2292 55.4126 64.201 54.3962C64.8686 53.7064 65.8629 53.1797 67.2575 53.1797C68.6522 53.1797 69.6679 53.7064 70.3358 54.3962C71.3075 55.4051 71.5525 56.7033 71.5525 58.4243C71.545 60.1602 71.3075 61.4584 70.3358 62.4747ZM68.7781 55.7612C68.3923 55.3977 67.8659 55.2048 67.2575 55.2048C66.6492 55.2048 66.1444 55.3977 65.7587 55.7612C65.128 56.3547 65.0542 57.3709 65.0542 58.4243C65.0542 59.4777 65.1354 60.494 65.7587 61.0874C66.1444 61.451 66.6492 61.6661 67.2575 61.6661C67.8659 61.6661 68.3923 61.4584 68.7781 61.0874C69.4087 60.494 69.4825 59.4777 69.4825 58.4243C69.4825 57.3784 69.4013 56.3547 68.7781 55.7612Z" fill="white"/>
<path d="M46.2477 61.5182C48.1318 61.4885 49.0814 60.8209 49.1111 59.5005C49.1259 58.4174 48.4954 57.772 47.2194 57.5494C46.6334 57.4679 45.9954 57.3789 45.2981 57.2824C44.0519 57.0747 43.1023 56.6148 42.4569 55.9026C41.7893 55.1682 41.4555 54.2706 41.4555 53.2173C41.4555 51.9487 41.8783 50.9324 42.7165 50.1535C43.5326 49.382 44.6898 48.9963 46.1883 48.9814C47.9909 49.0185 49.5561 49.523 50.8915 50.4799L49.6674 52.29C48.577 51.5778 47.3826 51.1995 46.077 51.1772C45.4019 51.1772 44.8382 51.3478 44.3857 51.6816C43.9183 52.0303 43.6735 52.557 43.6587 53.2543C43.6587 53.6698 43.8218 54.0481 44.1483 54.3893C44.4747 54.7306 44.9939 54.9754 45.7061 55.1014C46.1067 55.1682 46.6482 55.2424 47.3381 55.3315C48.6957 55.5169 49.6971 56.0065 50.3499 56.7928C50.9953 57.5643 51.3142 58.4693 51.3142 59.493C51.2401 62.2675 49.5413 63.6695 46.2254 63.7066C44.0815 63.7066 42.2344 63.0463 40.6914 61.7185L42.1305 60.0717C43.2804 61.0212 44.6527 61.5034 46.2477 61.5182Z" fill="white"/>
<path d="M52.9727 53.2762H55.0498V54.3666H55.0868C55.7693 53.5506 56.6669 53.1426 57.7722 53.1426C58.6253 53.1426 59.4116 53.4468 60.1164 54.0477C60.8211 54.6559 61.1846 55.5535 61.2217 56.733V63.5949H59.1446V57.4526C59.1446 56.733 58.9518 56.1767 58.566 55.8058C58.1876 55.42 57.6981 55.2271 57.1046 55.2271C56.5111 55.2271 56.0216 55.42 55.6358 55.8058C55.2426 56.1841 55.0498 56.733 55.0498 57.4526V63.5949H52.9727V53.2762Z" fill="white"/>
<path d="M73.3906 53.2762H75.4674V54.3666H75.5046C76.1874 53.5506 77.0847 53.1426 78.1897 53.1426C79.0207 53.1575 79.7407 53.4245 80.3558 53.9363L78.8502 55.739C78.4124 55.3977 77.9603 55.2197 77.4853 55.2197C76.9588 55.2197 76.4987 55.3903 76.1278 55.739C75.7049 56.0802 75.4823 56.6217 75.4748 57.3784V63.5949H73.3981V60.7314L73.3906 53.2762Z" fill="white"/>
<path d="M81.1211 49.0996H83.2054V58.1202H83.2426L87.2114 53.2761H89.6969L86.1361 57.3042L90.1787 63.5948H87.5747L84.8301 58.773L83.2054 60.6201V63.5948H81.1211V49.0996Z" fill="white"/>
<path d="M101.853 49.2259V58.8399C101.853 61.6366 100.363 61.7701 98.4564 61.7701H98.4638H95.0364C94.3096 61.7701 93.731 61.5475 93.2858 61.1098C92.8107 60.6796 92.5732 60.0491 92.5732 59.2182H99.0052V57.5194C98.9903 56.1619 98.5674 55.0937 97.7438 54.3148C96.9277 53.5507 95.9337 53.165 94.7542 53.1501C94.265 53.1501 93.7676 53.2392 93.2635 53.4172C92.7519 53.5952 92.2917 53.892 91.8837 54.2925C91.4756 54.6931 91.1495 55.2347 90.8896 55.9246C90.6298 56.5996 90.5039 57.4527 90.5039 58.469C90.5039 59.5298 90.6521 60.3903 90.9492 61.0505C91.2232 61.7404 91.5724 62.2746 92.0095 62.6603C92.2322 62.8458 92.4771 63.0015 92.737 63.1276C92.9813 63.276 93.2337 63.3872 93.4935 63.4763C94.0125 63.6321 94.5397 63.7137 95.0811 63.7137H98.4638H99.5465C102.551 63.7137 103.783 61.6069 103.783 59.6188V47.9648L101.853 49.2259ZM93.2188 55.6946C93.6194 55.3014 94.1242 55.1085 94.7468 55.1085C95.37 55.1085 95.8822 55.3014 96.2754 55.6946C96.6834 56.1026 96.8986 56.7109 96.9203 57.5121H92.5732C92.6104 56.7109 92.8256 56.11 93.2188 55.6946Z" fill="white"/>
<path d="M27.8173 60.0563C28.1907 60.0016 28.5545 59.8991 28.904 59.7504C29.3194 59.5741 29.7061 59.3361 30.0529 59.0434C30.0635 59.0349 30.0736 59.0259 30.0838 59.0169L30.3302 58.7922C30.345 58.779 30.3594 58.7646 30.3737 58.7503C30.796 58.32 31.1259 57.8186 31.3537 57.2604C31.5816 56.7011 31.6969 56.1131 31.6969 55.5113L31.7006 43.8874C31.7006 43.1353 31.325 42.5282 30.6696 42.2211C30.2877 42.0432 29.9005 42.0177 29.6051 42.0156H29.5547C29.2227 42.0156 28.8313 42.0395 28.4435 42.2201C27.7859 42.5271 27.4093 43.1342 27.4093 43.8868L27.4078 48.4621C25.9354 47.0827 23.9781 46.2749 21.8991 46.2573C17.4024 46.2196 13.713 49.8478 13.6758 54.3445C13.6683 55.2118 13.7995 56.1131 14.0306 56.8482C13.8718 56.9162 13.6976 56.9624 13.5191 56.9608H13.5058C13.2105 56.9545 12.9247 56.8217 12.631 56.5545C12.1067 56.077 11.9272 55.3839 11.7827 54.8267L11.7249 54.6036C11.6196 54.1968 11.2883 53.8882 10.875 53.8117C10.8128 53.8 10.7502 53.7942 10.688 53.7936C10.3391 53.791 10.005 53.9573 9.79827 54.2483C9.21456 55.0695 9.05411 56.2353 9.35686 57.4468C9.54438 58.1994 9.89816 58.9197 10.3799 59.5289C10.909 60.196 11.5681 60.6932 12.2873 60.9678C12.3861 61.0055 12.4865 61.0394 12.5874 61.0687C12.529 61.0708 12.47 61.0719 12.4095 61.0713C11.8752 61.067 11.3705 60.9518 10.9647 60.8589C10.8054 60.8222 10.6631 60.7898 10.5505 60.767C10.4814 60.7532 10.4124 60.7458 10.3438 60.7452C9.9916 60.742 9.65488 60.912 9.44876 61.2078C9.22038 61.535 9.19277 61.9589 9.36965 62.311C9.6942 63.0095 10.3789 63.6033 11.3546 64.0308C12.2082 64.4042 13.2392 64.6247 14.259 64.6518C14.3089 64.6528 14.3599 64.6539 14.4104 64.6544C15.4727 64.6635 16.484 64.4642 17.3344 64.0787C17.6334 63.9432 17.9122 63.7844 18.1689 63.6048C18.2315 63.9182 18.325 64.2321 18.4504 64.5434C18.8179 65.4564 19.4489 66.3419 20.2743 67.104C21.0302 67.7998 21.9241 68.3633 22.7931 68.6905C23.3561 68.9035 23.891 69.0135 24.3818 69.0177C24.7525 69.0209 25.0957 68.9625 25.4026 68.8451C25.7633 68.7224 26.0369 68.4154 26.1133 68.0341C26.2004 67.5985 26.0119 67.1545 25.6385 66.9144C25.5466 66.8555 25.4271 66.7816 25.2762 66.6892C24.8821 66.4486 24.3903 66.148 23.9712 65.7129C24.0514 65.7544 24.13 65.791 24.2065 65.824C24.7201 66.046 25.2816 66.1613 25.8754 66.1661C26.1048 66.1682 26.3391 66.1533 26.5723 66.1214C27.3361 66.0194 28.0866 65.7464 28.7415 65.3311C29.7927 64.6645 30.4731 63.7064 30.6096 62.7025C30.6659 62.2877 30.4773 61.8776 30.1262 61.6503C29.9504 61.5366 29.7496 61.4787 29.5483 61.4771C29.3471 61.4755 29.1457 61.5297 28.9683 61.6402L28.7755 61.7603C28.306 62.0534 27.7238 62.4167 27.0487 62.4109C27.0333 62.4109 27.0179 62.4104 27.0025 62.4098C26.6094 62.3965 26.312 62.2914 26.0937 62.0874C25.945 61.9493 25.8414 61.7719 25.7691 61.5918C26.5287 61.2105 27.2235 60.69 27.8173 60.0563Z" fill="white"/>
<path fill-rule="evenodd" clip-rule="evenodd" d="M29.3647 62.673C28.8209 63.0124 28.0087 63.5197 26.9847 63.4857C26.2846 63.4623 25.7587 63.2318 25.3747 62.8738C24.9355 62.4648 24.6922 61.8959 24.5897 61.2867C24.5445 61.0403 24.5567 60.9436 24.706 60.882C27.2683 59.9323 28.9011 57.3382 28.925 54.4685C28.9574 50.5609 25.8166 47.3671 21.909 47.3342C18.0012 47.3018 14.8074 50.4425 14.7745 54.35C14.7665 55.3024 14.9529 56.3657 15.2827 57.0445C15.4177 57.2867 15.2859 57.3367 15.1654 57.4286C14.673 57.8046 14.1047 58.0505 13.5002 58.0378C12.9797 58.0266 12.4427 57.8242 11.9216 57.3499C11.1599 56.6557 10.9177 55.7198 10.7552 55.0936L10.6973 54.8705C10.275 55.4654 10.2097 56.3264 10.4232 57.181C10.5709 57.7733 10.8545 58.3607 11.2455 58.8552C11.6316 59.3422 12.1224 59.7379 12.6907 59.9552C13.4524 60.2462 14.3697 60.2175 15.3805 59.6604C15.4613 59.6115 15.5611 59.5977 15.6567 59.6317C15.8267 59.6922 15.9175 59.8824 15.858 60.0555C15.7135 60.4815 15.4676 60.8783 15.0979 61.2145C14.7702 61.513 14.3442 61.7621 13.8024 61.9406C12.6063 62.3342 11.4845 62.0781 10.743 61.9087C10.5873 61.8731 10.4524 61.8423 10.3531 61.8221L10.3568 61.828C10.5677 62.3076 11.102 62.7293 11.8068 63.0379C12.5229 63.3513 13.4051 63.5446 14.3065 63.568C15.2047 63.5919 16.1193 63.4479 16.9075 63.0905C17.7133 62.7256 18.3879 62.1318 18.7655 61.2602L18.7709 61.2458C18.8393 61.0743 19.03 60.9914 19.1985 61.06L19.2 61.061V61.0621C19.3636 61.129 19.4465 61.3176 19.3849 61.4869C19.0545 62.3888 19.1347 63.2982 19.4714 64.1358C19.7976 64.9463 20.3617 65.6925 21.0261 66.3055C21.6938 66.9206 22.4613 67.3991 23.1932 67.6753C23.913 67.9473 24.5859 68.0184 25.0661 67.8187L25.0725 67.8177C24.9875 67.7629 24.8691 67.6902 24.732 67.6063C24.0798 67.2079 23.0955 66.6061 22.4996 65.4827C22.2302 64.9745 22.0911 64.4954 22.0576 64.0497C22.0188 63.5467 22.1124 63.0883 22.2977 62.6783C22.3344 62.5954 22.405 62.5291 22.4969 62.4999C22.6696 62.4446 22.8528 62.5413 22.9086 62.716C23.2575 63.8341 23.9029 64.5028 24.654 64.8278C25.2122 65.069 25.8358 65.1285 26.4466 65.0461C27.066 64.9639 27.6709 64.7381 28.1813 64.4141C28.9175 63.9467 29.4588 63.279 29.5576 62.5525L29.3647 62.673Z" fill="black"/>
<path d="M30.4637 54.523C30.4175 55.359 30.1594 55.9321 29.9007 56.3098C29.8545 56.3783 29.8067 56.4409 29.7615 56.4972C29.7164 56.5535 29.6718 56.604 29.6299 56.6497C29.6097 56.6726 29.5889 56.6927 29.5698 56.7123H29.5682C29.2925 56.9901 29.0063 57.1941 28.7248 57.3413C28.6748 57.3689 28.6244 57.3928 28.5733 57.4166C28.4597 57.4682 28.3477 57.5117 28.2382 57.5458C28.2366 57.5473 28.2366 57.5473 28.2366 57.5473C27.8759 57.6642 27.536 57.7029 27.2449 57.7019C27.2449 57.7019 27.2078 58.1209 27.0229 58.4306C26.8476 58.7248 26.5507 58.9841 26.5507 58.9841L27.3326 58.9904C27.3326 58.9904 27.2503 59.1041 27.1228 59.2443C26.9783 59.4074 26.8551 59.5126 26.8551 59.5126L23.6804 59.4934C22.6404 59.4929 21.7815 58.6165 21.7809 57.5563V57.4188C21.2561 57.5659 19.7365 57.5027 19.7365 57.5027C18.8489 57.5033 18.0437 57.1357 17.461 56.5408L17.4594 56.5392C16.8768 55.9454 16.5161 55.1248 16.5156 54.2208C16.5167 53.3168 16.8762 52.4956 17.4605 51.9023V51.9007H17.4621C18.0448 51.3075 18.8495 50.941 19.7376 50.9404L24.1403 50.941L27.2306 50.9442C27.527 50.9442 27.8138 50.984 28.0852 51.0616C28.2303 51.1019 28.3715 51.1513 28.5086 51.2119V51.1986C28.5086 51.1986 28.5086 51.1986 28.5101 51.2002C28.5479 51.2167 28.9972 51.4195 29.4572 51.8694C29.9895 52.3904 30.5349 53.2435 30.4637 54.523Z" fill="black"/>
<path fill-rule="evenodd" clip-rule="evenodd" d="M23.4921 54.262C23.4932 54.1234 23.5601 53.9619 23.6462 53.8684L23.6468 53.8674C23.7482 53.758 23.8836 53.7043 24.0202 53.7043H24.0292H24.0318H24.0345H24.0446C24.1811 53.707 24.3138 53.7638 24.4126 53.8743C24.4976 53.9694 24.5619 54.1277 24.5608 54.271C24.5534 55.1735 24.836 55.6759 25.2933 56.1497C25.7501 56.6224 26.3849 56.9188 27.0886 56.9246C27.7935 56.9304 28.4325 56.6447 28.8978 56.1795C29.362 55.7136 29.6531 55.0656 29.6589 54.3481C29.6647 53.63 29.3859 52.9782 28.9291 52.505C28.4712 52.0296 27.836 51.7333 27.1322 51.7274L20.9633 51.6759C20.2611 51.67 19.62 51.9558 19.1558 52.4221L19.1542 52.4232C18.69 52.8885 18.4005 53.5354 18.3946 54.2535C18.3888 54.9711 18.6682 55.6233 19.1244 56.0971C19.5813 56.5698 20.2171 56.8662 20.9208 56.872C21.6246 56.8779 22.2647 56.5922 22.73 56.1269C23.1937 55.6621 23.4848 55.1644 23.4921 54.262Z" fill="white"/>
<path fill-rule="evenodd" clip-rule="evenodd" d="M28.1578 53.5225C28.5519 53.5256 28.869 53.8555 28.8658 54.2592C28.8626 54.6628 28.5397 54.9874 28.1455 54.9842C27.752 54.981 27.4343 54.6512 27.4375 54.2475L28.1514 54.2534L28.1578 53.5225Z" fill="black"/>
<path fill-rule="evenodd" clip-rule="evenodd" d="M22.29 53.4736C22.6841 53.4768 23.0018 53.8067 22.9986 54.2103C22.9954 54.614 22.6725 54.9385 22.2778 54.9354C21.8847 54.9322 21.5671 54.6023 21.5703 54.1986L22.2837 54.2045L22.29 53.4736Z" fill="black"/>
<path fill-rule="evenodd" clip-rule="evenodd" d="M24.4874 56.5782C25.145 56.5834 25.6735 57.061 25.6687 57.6436C25.6639 58.2268 25.1275 58.6947 24.4699 58.6894C23.8128 58.6841 23.2838 58.2066 23.2891 57.624C23.2939 57.0413 23.8304 56.5728 24.4874 56.5782Z" fill="white"/>
<path d="M30.6359 55.5076C30.6359 55.9804 30.5409 56.4339 30.3731 56.8488C30.1972 57.2795 29.9391 57.6667 29.6225 57.9902L29.3755 58.2143C29.1137 58.4358 28.8184 58.618 28.5007 58.7524C28.2229 58.8713 27.8723 58.9951 27.6094 58.993L26.5508 58.9839C26.5822 58.9611 26.613 58.9361 26.6416 58.9091C26.6714 58.8836 26.7001 58.857 26.7256 58.8304C26.7527 58.8039 26.7771 58.7768 26.8005 58.7503C26.8249 58.7237 26.8483 58.6955 26.8685 58.6674V58.6658C26.8886 58.6403 26.9078 58.6164 26.9232 58.5909C26.9301 58.5829 26.9354 58.575 26.9397 58.567C26.9561 58.5441 26.971 58.5202 26.9832 58.4974C27.0326 58.4183 27.0709 58.3381 27.1038 58.2584C27.1203 58.2197 27.1356 58.1793 27.1479 58.1399C27.1643 58.0927 27.1781 58.047 27.1893 58.0029C27.2169 57.8924 27.2339 57.7904 27.2445 57.7018C27.8846 57.7028 28.7658 57.5191 29.5689 56.7123C29.8802 56.3983 30.3959 55.7386 30.4628 54.5224C30.5977 52.1051 28.5289 51.2086 28.5076 51.199L28.5097 43.8825C28.5103 43.5188 28.667 43.3143 28.9182 43.1963C29.1089 43.1076 29.3341 43.0922 29.5737 43.0928C29.8164 43.0922 30.0395 43.1076 30.2318 43.1969C30.4825 43.3148 30.6402 43.5198 30.6397 43.8847L30.6359 55.5076Z" fill="black"/>
<path fill-rule="evenodd" clip-rule="evenodd" d="M18.6936 56.5468L18.6921 56.5463C18.1147 55.9551 17.762 55.143 17.7694 54.2506C17.7769 53.3589 18.1434 52.5521 18.7303 51.9705L18.7319 51.9689C18.7834 51.9184 18.8355 51.8696 18.8907 51.8223C18.5083 51.9466 18.1657 52.1591 17.8868 52.4352C17.421 52.8957 17.131 53.5358 17.1251 54.2448C17.1193 54.9534 17.3992 55.5982 17.8555 56.0656C18.1295 56.346 18.4674 56.5632 18.8466 56.6939C18.7941 56.6461 18.7425 56.5973 18.6936 56.5468Z" fill="white"/>
</g>
</g>
</svg>
