<svg width="112" height="112" viewBox="0 0 112 112" fill="none" xmlns="http://www.w3.org/2000/svg">
<path d="M27.3737 64.3612L27.4409 64.5022L27.4432 64.5011C27.3797 64.6306 27.054 65.2797 26.663 65.783C26.4765 66.023 26.2755 66.2295 26.0811 66.3308L26.0402 66.3604C26.0402 66.3604 26.0374 66.3622 26.0317 66.3651C26.0317 66.3651 25.5162 66.5974 25.0444 66.3651C25.0386 66.3622 25.0358 66.3604 25.0358 66.3604L24.995 66.3308C24.8005 66.2295 24.5994 66.0227 24.4131 65.783C24.0223 65.2797 23.6963 64.6306 23.6328 64.5011L23.6351 64.5022L23.7024 64.3612L23.7127 64.3555C23.7923 64.5078 23.8679 64.6424 23.9404 64.7646C24.1296 65.085 24.2974 65.3235 24.4564 65.5852L24.4591 65.5898C24.7033 65.9895 25.0016 66.2005 25.0016 66.2005C25.0016 66.2005 25.151 66.3477 25.4049 66.3719H25.4061C25.4472 66.376 25.4913 66.3766 25.5379 66.3728C25.5842 66.3766 25.6283 66.3758 25.6697 66.3719H25.6709C25.9248 66.3477 26.0742 66.2005 26.0742 66.2005C26.0742 66.2005 26.3723 65.9895 26.6164 65.5898L26.6194 65.5852C26.7784 65.3235 26.9461 65.085 27.1354 64.7646C27.2079 64.6421 27.2835 64.5078 27.3631 64.3555L27.3737 64.3612Z" fill="white"/>
<path d="M35.9942 57.0635C36.0496 57.108 36.1153 57.14 36.1869 57.1551C36.1644 57.4777 36.128 57.7978 36.0774 58.1148L36.0252 58.1066C35.9422 58.4938 35.7812 58.9359 35.5938 59.3688C35.8074 58.6301 35.944 57.8584 35.9942 57.0635Z" fill="white"/>
<path d="M36.0288 58.1064L36.081 58.1146C35.9462 58.9659 35.7114 59.7961 35.3781 60.5962C34.8405 61.8876 34.0706 63.0468 33.0901 64.0426C32.586 64.5546 32.0394 65.01 31.4544 65.4058C31.2323 65.5043 31.0402 65.5765 30.8906 65.5983C30.8923 65.5965 30.913 65.5776 31.1377 65.3685C33.263 63.9997 34.872 61.8755 35.5965 59.3707L35.597 59.3693C35.7844 58.9364 35.9459 58.4935 36.0288 58.1064Z" fill="white"/>
<path d="M35.5955 59.3711C34.871 61.876 33.2619 64.0001 31.1367 65.369C31.2924 65.2244 31.5466 64.9879 31.9608 64.6026C32.2437 64.3888 32.5221 64.1332 32.7506 63.8678C33.5658 63.1094 34.2127 62.1523 34.6823 61.3159C35.2592 60.2891 35.5691 59.4445 35.5945 59.3736L35.5955 59.3711Z" fill="white"/>
<path d="M35.5919 59.373C35.5665 59.4439 35.2566 60.2885 34.6797 61.3153C34.7306 61.2255 34.7576 61.1262 34.7593 61.0251C34.9812 60.6332 35.3151 60.0132 35.5919 59.373Z" fill="white"/>
<path d="M35.9956 57.0625C35.9455 57.8575 35.8089 58.6291 35.5953 59.3678L35.5945 59.3699L35.5935 59.3724C35.3164 60.0126 34.9826 60.6323 34.7609 61.0243C34.7622 60.9679 34.7554 60.9112 34.7408 60.8551C34.7014 60.7062 34.6103 60.5808 34.4823 60.4992C34.5128 60.4302 34.5427 60.3608 34.5719 60.2907C35.0829 59.0639 35.3418 57.76 35.3418 56.4155C35.3418 55.0709 35.0826 53.7673 34.5719 52.5402C34.4889 52.3409 34.3999 52.1449 34.3047 51.9525C34.349 51.9391 34.3914 51.9205 34.4316 51.8967C34.5695 51.8159 34.6684 51.6851 34.7095 51.529C34.7347 51.4338 34.7367 51.3359 34.716 51.2422C35.533 52.7431 36.0034 54.464 36.0168 56.2934" fill="white"/>
<path d="M34.4824 60.5C34.6104 60.5813 34.7018 60.7067 34.7409 60.8559C34.7557 60.9119 34.7625 60.9687 34.761 61.025C34.6144 61.284 34.5169 61.4436 34.5169 61.4436L34.4514 61.5434C34.365 61.5915 34.2665 61.6183 34.1644 61.6183C34.0836 61.6183 34.0037 61.6015 33.9297 61.5693C33.9682 61.5045 34.0057 61.4398 34.0428 61.3743C34.0448 61.375 34.0471 61.3758 34.0491 61.3763C34.0549 61.3783 34.0604 61.3802 34.0664 61.3817C34.0672 61.3822 34.0685 61.3824 34.0695 61.3824C34.0768 61.3843 34.0843 61.386 34.0917 61.3873C34.0922 61.3878 34.0927 61.3878 34.0934 61.3878C34.0994 61.3891 34.1055 61.3901 34.1116 61.3909C34.1191 61.3919 34.1264 61.3929 34.1337 61.3934C34.1373 61.3939 34.141 61.3942 34.1446 61.3942C34.1508 61.3945 34.1577 61.3947 34.1639 61.3947C34.2939 61.395 34.4204 61.3264 34.4899 61.2039C34.4962 61.1926 34.5023 61.1811 34.5073 61.1693C34.5124 61.1578 34.5169 61.146 34.521 61.134C34.5234 61.1261 34.5257 61.1181 34.528 61.11C34.5406 61.0616 34.5433 61.0119 34.5373 60.9636C34.5366 60.9554 34.5351 60.9472 34.5333 60.9393C34.5323 60.9324 34.5308 60.9255 34.5287 60.9186C34.5282 60.9165 34.528 60.9142 34.5272 60.9122C34.5255 60.9053 34.5232 60.8986 34.5212 60.8917C34.5187 60.8838 34.5159 60.8763 34.5129 60.8687C34.5103 60.8615 34.5071 60.8546 34.5038 60.8477C34.5036 60.8469 34.5031 60.8464 34.5031 60.8457C34.4995 60.8382 34.496 60.8311 34.4917 60.8242C34.488 60.8172 34.4839 60.8103 34.4796 60.8037C34.4753 60.7969 34.4698 60.7894 34.465 60.7827C34.461 60.7773 34.4572 60.7722 34.4527 60.7671C34.4496 60.7632 34.4464 60.7592 34.4428 60.7556C34.4409 60.753 34.4386 60.7507 34.4363 60.7481C34.4325 60.7438 34.4285 60.74 34.4242 60.7361C34.4235 60.7354 34.423 60.7346 34.4222 60.7341C34.4197 60.7315 34.4169 60.7293 34.4144 60.7267C34.4118 60.7241 34.4088 60.7218 34.4061 60.7195C34.4005 60.7147 34.3947 60.7101 34.3887 60.7057C34.3889 60.7054 34.3884 60.7052 34.3887 60.7057C34.4209 60.6379 34.4519 60.5689 34.4824 60.5Z" fill="white"/>
<path d="M34.5183 61.4437C34.5183 61.4437 34.6158 61.2843 34.7625 61.0254C34.7607 61.1264 34.7338 61.2257 34.6829 61.3155C34.6277 61.4127 34.5473 61.4908 34.4531 61.5434L34.5183 61.4437Z" fill="white"/>
<path d="M34.6817 61.3154C34.2124 62.1518 33.5652 63.109 32.75 63.8674C33.4569 63.0468 34.2208 61.8947 34.2208 61.8947L34.4515 61.5437C34.546 61.4912 34.6266 61.4129 34.6817 61.3154Z" fill="white"/>
<path d="M34.4631 60.4886C34.4696 60.4925 34.4762 60.4965 34.4825 60.5004C34.452 60.5692 34.4205 60.6381 34.3885 60.7058L34.3875 60.7051C34.385 60.7028 34.3822 60.701 34.3794 60.6989C34.3769 60.6969 34.3742 60.6951 34.3714 60.6933C34.3656 60.6892 34.3596 60.6854 34.3532 60.6818C34.3454 60.6775 34.3379 60.6731 34.33 60.6695C34.3243 60.6664 34.3185 60.6636 34.3124 60.6613C34.3034 60.6572 34.2941 60.6537 34.2847 60.6506C34.2809 60.6493 34.2771 60.648 34.2734 60.647L34.2696 60.646C34.2653 60.6444 34.2611 60.6434 34.2565 60.6424C34.252 60.6408 34.2469 60.6398 34.2422 60.6391V60.4121C34.3195 60.4229 34.3948 60.4487 34.4631 60.4886Z" fill="white"/>
<path d="M34.2428 60.3867V60.4112C34.2362 60.4105 34.2295 60.4097 34.2227 60.4089L34.2428 60.3867Z" fill="white"/>
<path d="M34.2439 60.3033C34.21 60.2743 34.1573 60.2281 34.0898 60.166V52.0457L34.1326 51.9788H34.1361C34.1722 51.9788 34.2087 51.9753 34.2439 51.9688V60.3033Z" fill="white"/>
<path d="M34.09 60.166C34.1573 60.2282 34.2102 60.2744 34.2442 60.3034V60.3873L34.2241 60.4095C34.2054 60.4078 34.1865 60.407 34.1674 60.407C34.1414 60.407 34.1155 60.4088 34.0898 60.4121L34.09 60.166Z" fill="white"/>
<path d="M34.1636 61.6177C34.2656 61.6177 34.3636 61.5911 34.4503 61.543L34.2195 61.894C34.2195 61.894 33.4555 63.0462 32.7488 63.8667C32.4359 64.1579 32.1754 64.4002 31.959 64.6016C31.3698 65.0473 30.7612 65.3123 30.543 65.1092C30.5614 65.0631 30.584 65.004 30.6092 64.9393C31.2828 64.5255 31.9056 64.0294 32.47 63.4561C32.5322 63.3928 32.5936 63.3286 32.6543 63.2636L32.6574 63.2603C32.678 63.2386 32.6984 63.2168 32.7178 63.1951C32.7198 63.193 32.7218 63.1907 32.7236 63.1889C33.1814 62.689 33.5844 62.1473 33.9291 61.5686C34.0029 61.6008 34.0828 61.6177 34.1636 61.6177Z" fill="white"/>
<path d="M33.9501 51.778L33.8634 51.9118C33.7626 51.8593 33.6767 51.7782 33.6185 51.6759C33.6047 51.6515 33.5925 51.6265 33.5825 51.6009C33.5621 51.5502 33.549 51.4973 33.5432 51.4443C33.5328 51.356 33.5421 51.267 33.5689 51.1836C33.585 51.1342 33.6071 51.0866 33.6354 51.0424C33.6608 51.0027 33.6905 50.9658 33.7253 50.9331C33.7586 50.9011 33.7959 50.8727 33.837 50.8487C33.9274 50.7954 34.0304 50.7676 34.1347 50.7676C34.174 50.7676 34.2125 50.7716 34.2503 50.7791C34.3586 50.8011 34.4589 50.853 34.5395 50.9285C34.5834 50.9692 34.6212 51.0167 34.6516 51.0705C34.6516 51.0707 34.6516 51.0702 34.6516 51.0705C34.6824 51.1247 34.705 51.1834 34.7176 51.2427C34.7381 51.3363 34.7363 51.4349 34.7114 51.53C34.6703 51.6861 34.5713 51.8168 34.4335 51.8977C34.3932 51.9215 34.3506 51.9399 34.3065 51.9535C34.2861 51.9596 34.2649 51.965 34.2438 51.9689C34.2083 51.9755 34.172 51.9788 34.136 51.9788C34.1349 51.9788 34.1334 51.9788 34.1324 51.9788L34.1425 51.9627L33.9501 51.778ZM33.7954 51.5369C33.7966 51.54 33.7979 51.5431 33.7997 51.5459C33.8024 51.552 33.8057 51.5579 33.8092 51.5641C33.8165 51.5771 33.8246 51.5894 33.8332 51.6009C33.8359 51.6047 33.8389 51.6086 33.842 51.6124C33.845 51.6167 33.8483 51.6206 33.8521 51.6247C33.8626 51.6375 33.8745 51.6493 33.8868 51.6603C33.8898 51.6631 33.8929 51.6659 33.8964 51.6682C33.8984 51.6702 33.9006 51.6718 33.9027 51.6733C33.9047 51.6749 33.9064 51.6764 33.9085 51.6779C33.9105 51.6795 33.9125 51.681 33.9145 51.6822C33.9153 51.6831 33.9161 51.6836 33.9171 51.6841C33.9216 51.6874 33.9264 51.6907 33.9312 51.6938C33.942 51.7012 33.953 51.7076 33.9647 51.7133C33.9692 51.7158 33.9742 51.7181 33.979 51.7204C33.9974 51.7289 34.016 51.7357 34.0352 51.7411C34.0372 51.7416 34.039 51.7419 34.0407 51.7424C34.0425 51.7429 34.0443 51.7432 34.0463 51.7437C34.05 51.7447 34.0538 51.7455 34.0574 51.7462C34.0617 51.7472 34.0662 51.7483 34.0705 51.7488C34.0712 51.7491 34.0715 51.7491 34.072 51.7491C34.0778 51.7501 34.0835 51.7511 34.0894 51.7516C34.0966 51.7523 34.104 51.7532 34.1113 51.7537C34.1191 51.7544 34.1267 51.7544 34.1347 51.7544C34.1408 51.7544 34.147 51.7544 34.1531 51.7539C34.1574 51.7537 34.1619 51.7534 34.1662 51.7532C34.169 51.7532 34.172 51.7526 34.1745 51.7523C34.1783 51.7521 34.182 51.7516 34.1858 51.7511C34.1917 51.7503 34.1972 51.7496 34.2025 51.7486C34.2097 51.7475 34.2171 51.746 34.2242 51.7439C34.2304 51.7424 34.237 51.7409 34.2431 51.7386C34.2433 51.7388 34.2428 51.7386 34.2431 51.7386C34.2446 51.7381 34.2468 51.7378 34.2483 51.737C34.2536 51.7355 34.2587 51.7337 34.2637 51.7316C34.2697 51.7296 34.2755 51.7273 34.2816 51.7245C34.2957 51.7186 34.3095 51.7117 34.3232 51.7038C34.503 51.5981 34.5647 51.3647 34.4607 51.182C34.4259 51.1209 34.3768 51.0728 34.3204 51.0408C34.2083 50.9763 34.0664 50.9723 33.947 51.0424C33.9405 51.0462 33.9339 51.0503 33.9276 51.0544C33.9183 51.0605 33.9092 51.0672 33.9009 51.0743C33.8959 51.0782 33.8911 51.0823 33.8863 51.0863C33.8855 51.0871 33.8846 51.0879 33.8838 51.0887C33.8777 51.0941 33.8719 51.0997 33.8664 51.1055C33.8624 51.1097 33.8586 51.1138 33.855 51.1181C33.8526 51.1206 33.85 51.1237 33.8478 51.1265C33.8437 51.1311 33.8399 51.136 33.8364 51.1406C33.8299 51.1491 33.8236 51.158 33.8181 51.1672C33.8145 51.1724 33.8115 51.1777 33.8084 51.1831C33.8031 51.192 33.7986 51.2012 33.7941 51.2107C33.7913 51.2168 33.7885 51.2233 33.7863 51.2294C33.7828 51.2381 33.7795 51.247 33.7767 51.256C33.7752 51.2603 33.7739 51.2647 33.7727 51.2693C33.7717 51.2732 33.7704 51.2772 33.7697 51.2808C33.7682 51.287 33.7664 51.2941 33.7651 51.3003C33.7644 51.3051 33.7634 51.31 33.7629 51.3146C33.7621 51.3187 33.7616 51.3226 33.7611 51.3266C33.7601 51.3341 33.7593 51.3412 33.7591 51.3486C33.7583 51.3565 33.7583 51.3647 33.7583 51.3727C33.7583 51.3788 33.7583 51.385 33.7588 51.3913C33.7591 51.3972 33.7596 51.4029 33.7601 51.4085C33.7606 51.4141 33.7608 51.4195 33.7618 51.4251C33.7626 51.4315 33.7636 51.4382 33.7651 51.4443C33.7656 51.4474 33.7659 51.4505 33.7669 51.4533C33.7674 51.4571 33.7682 51.4607 33.7694 51.4643C33.7701 51.4673 33.7709 51.4704 33.772 51.4738C33.7732 51.4794 33.7747 51.485 33.7767 51.4904C33.7777 51.4945 33.7792 51.4983 33.7808 51.5021C33.785 51.5139 33.7898 51.5254 33.7954 51.5369Z" fill="white"/>
<path d="M34.089 51.9769C34.0094 51.9708 33.9326 51.9482 33.8633 51.9121L33.95 51.7783L34.1417 51.9628L34.1316 51.9789C34.1173 51.9789 34.1032 51.9781 34.089 51.9769Z" fill="white"/>
<path d="M34.0898 51.9766C34.1039 51.9778 34.1182 51.9786 34.1326 51.9786L34.0898 52.0457V51.9766Z" fill="white"/>
<path d="M34.0898 60.4746C34.1134 60.4772 34.1371 60.4793 34.161 60.4808L34.0898 60.5609V60.4746Z" fill="white"/>
<path d="M34.0898 60.4123C34.1152 60.4091 34.1414 60.4072 34.1674 60.4072C34.1863 60.4072 34.2052 60.408 34.2241 60.4098L34.1613 60.4804C34.1374 60.4789 34.1134 60.4768 34.09 60.4743L34.0898 60.4123Z" fill="white"/>
<path d="M34.123 60.6341C34.119 60.6346 34.1152 60.6348 34.1112 60.6359C34.1094 60.6359 34.1077 60.6361 34.1059 60.6367C34.1006 60.6374 34.095 60.6382 34.0898 60.6395V60.5609L34.161 60.4808L34.2238 60.4102C34.2303 60.411 34.2372 60.4118 34.2439 60.4125V60.6397C34.2394 60.6386 34.2336 60.6374 34.2288 60.6369C34.2265 60.6361 34.2246 60.6359 34.2223 60.6359C34.218 60.6351 34.2132 60.6343 34.209 60.6338C34.2059 60.6333 34.2029 60.6331 34.1994 60.6331C34.1953 60.6326 34.1916 60.6323 34.1878 60.6323C34.181 60.6318 34.1739 60.6316 34.1669 60.6316C34.1588 60.6316 34.1507 60.6318 34.143 60.6323C34.1361 60.6326 34.1296 60.6331 34.123 60.6341Z" fill="white"/>
<path d="M33.8622 51.9121C33.9315 51.9485 34.0083 51.9707 34.0879 51.9769V52.046L31.7642 55.7089C31.7236 55.518 31.6866 55.3294 31.6523 55.1442L33.7974 52.0117L33.8622 51.9121Z" fill="white"/>
<path d="M34.087 60.4121C34.0353 60.419 33.9854 60.4325 33.9381 60.4522C32.6303 60.2056 31.7915 58.6032 31.5927 57.9394C31.3806 57.232 31.0929 56.2165 30.9311 54.5756C30.9306 54.5705 30.9301 54.5652 30.9296 54.56C30.788 53.138 30.4427 52.0388 30.3555 51.7783C30.7593 51.8446 31.0472 51.84 31.0472 51.84C31.0472 51.84 31.0825 52.0117 31.2997 53.0988C31.4075 53.6395 31.5055 54.3587 31.6514 55.1442L31.3579 55.573L31.661 55.8703L31.7633 55.7089C31.896 56.337 32.0658 56.9887 32.2993 57.6112C32.7644 58.8505 33.6842 59.7939 34.0867 60.1662L34.087 60.4121Z" fill="white"/>
<path d="M33.9375 60.4523C33.9849 60.4326 34.0348 60.419 34.0864 60.4121V60.474C34.036 60.4686 33.9865 60.4613 33.9375 60.4523Z" fill="white"/>
<path d="M33.9411 60.4531C33.9902 60.4623 34.0398 60.4698 34.09 60.4749V60.5611L33.9846 60.6791C33.9773 60.6831 33.9698 60.6875 33.9629 60.6924C33.9562 60.6967 33.9494 60.7016 33.9428 60.7067C33.936 60.7116 33.9297 60.7169 33.9232 60.7225C33.9169 60.7279 33.9103 60.7338 33.9045 60.7397C33.9005 60.7435 33.8967 60.7474 33.8935 60.7512C33.8735 60.7722 33.8562 60.796 33.8413 60.8221C33.837 60.8295 33.8332 60.8372 33.8297 60.8446C33.8267 60.8505 33.8239 60.8561 33.8219 60.862L33.8214 60.863L33.8121 60.873C33.7375 60.8776 33.6619 60.8792 33.5859 60.8771C33.5989 60.8198 33.6201 60.7638 33.6506 60.7103C33.7174 60.5928 33.8209 60.5033 33.9411 60.4531Z" fill="white"/>
<path d="M33.9791 61.3441C33.9863 61.3484 33.9937 61.3522 34.0009 61.3558L34.0019 61.3563C34.0095 61.3602 34.0168 61.3635 34.0241 61.3665C34.0309 61.3694 34.038 61.3722 34.0451 61.3745C34.008 61.44 33.9705 61.505 33.9319 61.5695C33.9103 61.5603 33.8891 61.5495 33.8687 61.5375C33.8087 61.5024 33.7573 61.4584 33.7148 61.408L33.9241 61.3047C33.9284 61.3085 33.9325 61.312 33.937 61.3154C33.9428 61.3197 33.9483 61.3239 33.9541 61.3282C33.9559 61.3292 33.9579 61.3307 33.9599 61.332C33.9662 61.3364 33.9727 61.3402 33.9791 61.3441Z" fill="white"/>
<path d="M33.9805 60.6785L34.0858 60.5605V60.6391C34.0816 60.6398 34.0768 60.6409 34.0723 60.6422C34.0692 60.6429 34.0662 60.6437 34.0626 60.6447C34.0566 60.6463 34.0508 60.6481 34.0451 60.6501L34.0441 60.6506C34.0362 60.6532 34.0289 60.656 34.0214 60.659C34.0161 60.6611 34.011 60.6634 34.0057 60.666C34.0014 60.6678 33.9971 60.67 33.9929 60.6721C33.9894 60.6739 33.9856 60.6757 33.9823 60.6777L33.9805 60.6785Z" fill="white"/>
<path d="M33.8266 61.1777C33.8274 61.1797 33.8287 61.1818 33.8297 61.1838C33.8322 61.1897 33.8352 61.1953 33.8385 61.2007C33.8415 61.2066 33.845 61.2125 33.8488 61.2179C33.8501 61.2204 33.8516 61.2227 33.8534 61.2253C33.8561 61.2296 33.8591 61.234 33.8624 61.2383C33.872 61.2517 33.8826 61.2647 33.8944 61.277C33.8962 61.279 33.8979 61.2808 33.9 61.2829C33.9017 61.2849 33.9038 61.2867 33.9058 61.2885L33.909 61.2913C33.9136 61.2959 33.9184 61.3002 33.9232 61.3041L33.7138 61.4075C33.6798 61.3671 33.6513 61.3225 33.6289 61.2752L33.8266 61.1777Z" fill="white"/>
<path d="M33.9831 60.6787L33.8203 60.8617C33.8225 60.8557 33.8251 60.8501 33.8281 60.8442C33.8316 60.8366 33.8357 60.8292 33.8397 60.8218C33.8546 60.7956 33.872 60.7719 33.8918 60.7508C33.8951 60.7468 33.8989 60.7429 33.9029 60.7393C33.909 60.7332 33.9153 60.7276 33.9215 60.7222C33.9279 60.7166 33.9344 60.7112 33.9412 60.7064C33.9478 60.7013 33.9545 60.6966 33.9614 60.692C33.9684 60.6869 33.9757 60.6828 33.9831 60.6787Z" fill="white"/>
<path d="M33.5853 60.8773C33.6613 60.8794 33.7367 60.8781 33.8115 60.8732L33.8208 60.8633C33.8186 60.8681 33.8166 60.8732 33.8148 60.8784L33.8132 60.8827C33.8124 60.8852 33.8115 60.8873 33.8107 60.8899C33.81 60.8924 33.8089 60.8947 33.8081 60.8972C33.8058 60.9039 33.804 60.9108 33.8022 60.918C33.8002 60.9254 33.7986 60.9329 33.7973 60.9403C33.7958 60.9474 33.7949 60.9546 33.7939 60.9617C33.7931 60.9656 33.7928 60.9692 33.7926 60.973L33.7921 60.9771C33.7913 60.9824 33.7913 60.9876 33.7911 60.993C33.7899 61.015 33.7903 61.0367 33.7931 61.0585C33.7936 61.0623 33.7938 61.0661 33.7945 61.07C33.7953 61.0743 33.7958 61.0784 33.7968 61.0827C33.7973 61.0866 33.7981 61.0904 33.7991 61.094C33.7993 61.0966 33.7998 61.0989 33.8006 61.1014C33.8018 61.1071 33.8032 61.1124 33.805 61.1181C33.8064 61.124 33.8082 61.1296 33.8102 61.1352C33.8128 61.1429 33.8152 61.1503 33.8182 61.1575C33.8207 61.1636 33.8233 61.1698 33.8261 61.1759L33.8274 61.179L33.6296 61.2764C33.5717 61.1534 33.5548 61.0124 33.5853 60.8773Z" fill="white"/>
<path d="M33.629 61.2754C33.6512 61.3224 33.6796 61.367 33.7139 61.4076L31.4766 62.5117C31.4992 62.4416 31.5217 62.3723 31.5438 62.3044L33.629 61.2754Z" fill="white"/>
<path d="M33.0282 49.1248C33.2686 49.4165 33.946 50.2539 34.2491 50.7792C34.2115 50.7717 34.1726 50.7677 34.1334 50.7677C34.0293 50.7677 33.9263 50.7955 33.8356 50.8488C33.7945 50.8728 33.7573 50.9012 33.724 50.9332C33.3615 50.3757 32.9428 49.855 32.4709 49.3758C32.3779 49.2814 32.2835 49.1893 32.1875 49.0995C32.4971 49.0685 32.7992 49.092 33.0282 49.1248Z" fill="white"/>
<path d="M28.8633 48.7168L33.6342 51.0436C33.606 51.0876 33.5838 51.1352 33.5677 51.1848L29.1064 49.009C29.0293 48.9097 28.9487 48.8122 28.8633 48.7168Z" fill="white"/>
<path d="M33.5405 51.4453C33.5466 51.4983 33.5594 51.551 33.5798 51.6019H31.1359C31.0981 51.5671 31.0424 51.5147 30.9727 51.4453H33.5405Z" fill="white"/>
<path d="M33.5337 49.1886L33.2244 49.1502C32.4679 48.3202 31.5828 47.613 30.6016 47.0609L30.7686 46.9199C31.6153 47.4032 32.3925 48.002 33.0884 48.7086C33.2423 48.865 33.3907 49.0249 33.5337 49.1886Z" fill="white"/>
<path d="M36.2127 56.214C36.1928 54.8073 35.9112 53.4423 35.3749 52.1548C34.9214 51.0658 34.3029 50.0703 33.532 49.1878L33.2227 49.1494C33.226 49.1528 33.2287 49.1558 33.232 49.1592C33.7242 49.7 34.1623 50.2929 34.5364 50.9285C34.5803 50.9691 34.6181 51.0167 34.6485 51.0704C34.6485 51.0707 34.6485 51.0702 34.6485 51.0704C34.6793 51.1247 34.702 51.1833 34.7145 51.2426C35.5315 52.7434 36.0021 54.4649 36.0155 56.2944C36.016 56.3212 36.016 56.3484 36.016 56.3752C36.016 56.5538 36.0117 56.7313 36.0029 56.9079C36.0006 56.9598 35.9978 57.0113 35.9945 57.0629C36.05 57.1074 36.1157 57.1395 36.1873 57.1546C36.1923 57.0814 36.1969 57.0082 36.2004 56.9345C36.2097 56.749 36.2143 56.5625 36.2143 56.3752C36.214 56.3217 36.2137 56.2677 36.2127 56.214Z" fill="white"/>
<path d="M33.0273 49.125L33.2238 49.1495C33.2271 49.1529 33.2299 49.1559 33.2332 49.1593C33.1747 49.148 33.1052 49.136 33.0273 49.125Z" fill="white"/>
<path d="M33.0273 49.125C33.1052 49.136 33.1747 49.1481 33.2329 49.1596C33.7252 49.7005 34.1633 50.2933 34.5374 50.9288C34.4568 50.8533 34.3565 50.8014 34.2482 50.7794C33.9451 50.2541 33.2677 49.4164 33.0273 49.125Z" fill="white"/>
<path d="M32.4698 63.4561C31.9056 64.0292 31.283 64.5256 30.6094 64.9393C30.6706 64.7814 30.7449 64.5885 30.7938 64.4611C30.7938 64.4611 31.9937 63.9471 32.654 63.2637C32.5935 63.3286 32.5321 63.3929 32.4698 63.4561Z" fill="white"/>
<path d="M31.9609 64.602C32.1773 64.4003 32.4378 64.1583 32.7507 63.8672C32.5222 64.1325 32.2438 64.3881 31.9609 64.602Z" fill="white"/>
<path d="M31.9238 61.1081C31.9238 61.1081 31.7562 61.648 31.5446 62.3038L31.1289 62.5087C31.3181 61.8668 31.4302 61.2961 31.4743 61.0508C31.7318 61.0986 31.9238 61.1081 31.9238 61.1081Z" fill="white"/>
<path d="M31.7647 55.7092L31.6624 55.8707L31.3594 55.5733L31.6529 55.1445C31.6871 55.3298 31.7241 55.5183 31.7647 55.7092Z" fill="white"/>
<path d="M31.1291 62.5096L31.5448 62.3047C31.5229 62.3727 31.5002 62.4421 31.4775 62.5119L31.0664 62.7146C31.0883 62.6455 31.1092 62.5772 31.1291 62.5096Z" fill="white"/>
<path d="M30.6967 60.8047C30.7518 60.8308 30.807 60.8556 30.8615 60.8784C31.0673 60.9636 31.2869 61.0178 31.4723 61.0523C31.428 61.2977 31.3159 61.868 31.1269 62.5103L30.3359 62.9004C30.4949 62.1162 30.6471 61.1329 30.6967 60.8047Z" fill="white"/>
<path d="M31.1354 51.6019H30.918V51.4453H30.9722C31.0417 51.5147 31.0974 51.5669 31.1354 51.6019Z" fill="white"/>
<path d="M30.8877 65.5991C30.8383 65.6065 30.7937 65.6081 30.7539 65.6035C30.8827 65.528 31.0096 65.4499 31.1348 65.3691C30.9101 65.5784 30.8894 65.5974 30.8877 65.5991Z" fill="white"/>
<path d="M30.7971 64.4618C30.7823 64.4688 30.5457 64.2968 30.4336 64.2142C30.4497 64.1876 30.4651 64.1607 30.48 64.1339C30.7205 63.704 30.915 63.1969 31.0665 62.7143L31.4776 62.5117C31.2584 63.1849 31.0082 63.9294 30.8495 64.325C30.8495 64.325 30.8289 64.3797 30.7971 64.4618Z" fill="white"/>
<path d="M30.7687 46.9185L30.6017 47.0596C29.1002 46.2142 27.374 45.7327 25.5391 45.7327V45.5312C26.9803 45.5312 28.3785 45.8181 29.6947 46.3835C30.0638 46.5422 30.4221 46.7207 30.7687 46.9185Z" fill="white"/>
<path d="M30.5447 65.1093C30.7629 65.3124 31.3716 65.0473 31.9608 64.6016C31.5467 64.9869 31.2925 65.2233 31.1368 65.3679C31.0116 65.4487 30.8846 65.5268 30.7558 65.6023C30.6994 65.5959 30.6531 65.5769 30.6168 65.5434C30.4775 65.4134 30.4551 65.3331 30.517 65.1785C30.5241 65.1617 30.5337 65.1379 30.5447 65.1093Z" fill="white"/>
<path d="M30.6968 60.8046C30.6472 61.1331 30.495 62.1164 30.336 62.9004L29.6523 63.2376C29.8252 61.9941 29.8113 60.2852 29.8113 60.2852C29.8113 60.2852 30.2535 60.5935 30.6968 60.8046Z" fill="white"/>
<path d="M31.5924 57.9399C31.3803 57.2325 31.0926 56.217 30.9309 54.5761C30.9304 54.571 30.9298 54.5656 30.9293 54.5605C30.7878 53.1384 30.4424 52.0392 30.3552 51.7788C30.0841 51.7346 29.7609 51.6588 29.4375 51.5283C29.5393 51.6931 29.736 52.0506 29.8975 52.5763C30.1265 53.3217 30.1668 54.2929 30.1668 54.2929C30.1668 54.2929 30.1711 54.3991 30.1799 54.57C30.195 54.8745 30.2237 55.3847 30.2646 55.8685C30.3283 56.624 30.4512 57.8632 30.9209 59.0529C31.3591 60.1634 32.515 60.8496 33.5827 60.8772C33.5957 60.8199 33.6169 60.7639 33.6474 60.7104C33.7142 60.5927 33.8177 60.5034 33.9379 60.453C32.6302 60.2063 31.7912 58.6036 31.5924 57.9399Z" fill="white"/>
<path d="M27.1769 48.6873C27.3034 48.7627 27.4253 48.8456 27.546 48.9306C27.6669 49.0158 27.7841 49.1066 27.8985 49.2013C28.1282 49.3896 28.3472 49.5925 28.553 49.8105C28.3769 49.5664 28.1718 49.3446 27.9549 49.1353C27.7367 48.9278 27.5014 48.7366 27.2495 48.5693C27.1231 48.4859 26.9931 48.4079 26.858 48.3383C26.7225 48.27 26.5837 48.2075 26.4409 48.1546C26.4051 48.1415 26.3685 48.1297 26.3325 48.118C26.3141 48.1121 26.2965 48.1057 26.2779 48.1003L26.2227 48.0852C26.1856 48.0755 26.1491 48.0637 26.1116 48.056L25.9995 48.0312C25.9619 48.023 25.9239 48.0187 25.8861 48.0123L25.8292 48.0033C25.8103 48.0008 25.7912 47.9992 25.772 47.9972C25.7339 47.9939 25.6959 47.9893 25.6576 47.9867L25.6211 47.9854V47.3281C26.7807 47.3514 27.5891 47.6628 28.1988 48.1077L28.6555 48.7886L29.1067 49.0086C29.3206 49.2829 29.507 49.5676 29.6856 49.8432C30.1865 50.6169 30.6944 51.1668 30.9747 51.4454H30.9205V51.602H31.138C31.1727 51.634 31.1929 51.6514 31.1952 51.6537C30.8067 51.603 30.4308 51.506 30.0698 51.3781C29.6866 51.175 29.3045 50.8974 28.8173 50.51C28.33 50.1229 28.0093 49.7972 27.257 49.2845C26.592 48.8311 25.7967 48.7786 25.6213 48.7722V48.1635L25.6473 48.1643C25.683 48.1668 25.7186 48.1704 25.7544 48.1737C25.7722 48.1755 25.7901 48.1766 25.808 48.1791L25.8612 48.187C25.8967 48.1929 25.9325 48.1968 25.9677 48.2042C26.1096 48.2298 26.2487 48.2694 26.3864 48.314C26.5237 48.3605 26.6582 48.4163 26.7905 48.4785C26.856 48.5112 26.9215 48.5435 26.9855 48.5788C27.0505 48.6125 27.1135 48.6504 27.1769 48.6873Z" fill="white"/>
<path d="M29.6532 63.2376L30.337 62.9004C30.3236 62.9669 30.3098 63.0316 30.2964 63.0945L29.625 63.4256C29.6351 63.3644 29.6444 63.3015 29.6532 63.2376Z" fill="white"/>
<path d="M30.293 63.0942C30.3064 63.0313 30.3203 62.9665 30.3336 62.9L31.1246 62.5098C31.1048 62.5774 31.0838 62.6457 31.0622 62.7147L30.293 63.0942Z" fill="white"/>
<path d="M29.6243 63.4249L30.2957 63.0938C30.2801 63.1665 30.2645 63.2367 30.2491 63.3033C30.0269 64.2604 29.3469 65.0945 28.4448 65.6617C27.5429 66.2292 26.082 66.3302 26.082 66.3302C26.2765 66.2289 26.4775 66.0221 26.664 65.7824C27.6646 65.95 29.2069 65.0655 29.5155 63.9459C29.5575 63.7933 29.5936 63.6166 29.6243 63.4249Z" fill="white"/>
<path d="M31.5123 60.2585C31.2042 59.9781 30.723 59.1491 30.5177 58.3084C30.3124 57.4673 30.2419 57.016 30.2013 55.9427C30.1774 55.3023 30.1698 54.8384 30.1678 54.5685C30.1665 54.386 30.1675 54.2921 30.1675 54.2921C30.1675 54.2921 30.1273 53.3209 29.8983 52.5756C29.7368 52.0498 29.54 51.6923 29.4382 51.5275C29.4251 51.5222 29.4123 51.5168 29.3992 51.5114C28.594 51.1757 28.3248 51.0166 28.3164 51.0117C28.3305 51.0307 29.2317 52.2583 29.4471 53.642C29.4917 53.9278 29.5166 54.2005 29.5282 54.4631C29.5733 55.4821 29.4169 56.3457 29.4169 57.2059C29.4169 58.2879 29.8763 60.3184 31.9615 60.6771C31.9615 60.6771 31.8204 60.5387 31.5123 60.2585Z" fill="white"/>
<path d="M27.2568 49.2837C28.0093 49.7964 28.3298 50.1221 28.817 50.5093C29.304 50.8966 29.6861 51.174 30.0693 51.3771C28.9986 50.9979 28.0602 50.3475 27.3276 49.8376C26.3481 49.1555 25.6211 49.0135 25.6211 49.0135V48.7715C25.7964 48.7779 26.5917 48.8306 27.2568 49.2837Z" fill="white"/>
<path d="M28.8629 48.716L28.7589 48.6654L28.6289 48.4717C28.7111 48.5507 28.7886 48.6326 28.8629 48.716Z" fill="white"/>
<path d="M28.6324 48.4712C28.5002 48.3425 28.3571 48.22 28.2016 48.1066L27.1914 46.5996C27.2625 46.6114 27.3332 46.6244 27.4038 46.6385L28.6324 48.4712Z" fill="white"/>
<path d="M29.1072 49.0083L28.656 48.7883L28.1992 48.1074C28.355 48.2208 28.4978 48.3433 28.6301 48.472L28.7601 48.6657L28.8641 48.7164C28.9495 48.8118 29.0301 48.9093 29.1072 49.0083Z" fill="white"/>
<path d="M27.3624 64.3558C27.3949 64.2935 27.4279 64.2286 27.4618 64.16C27.6291 63.8215 27.7564 63.5999 27.8576 63.4218C27.9576 63.2455 28.0318 63.1115 28.0932 62.9498C28.2166 62.6241 28.4262 61.8626 28.4819 61.1987C28.5247 60.6846 28.3895 60.1611 28.1703 59.6919C28.1063 59.555 28.035 59.4227 27.9594 59.2964C27.6236 58.7373 26.4119 57.9017 26.2705 57.8272C26.1292 57.753 26.1695 57.7018 26.21 57.6709C26.2504 57.6399 26.6495 57.4043 26.6495 57.4043C26.6495 57.4043 27.2603 57.6118 27.7549 58.0606C28.2496 58.509 28.4038 58.8066 28.4038 58.8066C28.4038 58.8066 27.9065 57.5043 27.9922 57.4762C28.0778 57.448 28.7696 57.8863 29.0119 58.5403C29.2543 59.194 29.2014 60.5478 29.0119 61.3015C28.8225 62.0553 28.4036 62.676 28.1385 63.2015C27.9622 63.5513 27.7171 64.0014 27.573 64.2629L27.3729 64.3616L27.3624 64.3558Z" fill="white"/>
<path d="M27.9022 63.3027C28.1684 62.8751 28.3236 60.5271 28.2495 59.9701C28.2367 59.8741 28.2075 59.782 28.1665 59.694L28.1717 59.6914C28.3909 60.1609 28.5262 60.6842 28.4833 61.1982C28.428 61.8622 28.2183 62.6236 28.0946 62.9493C28.0332 63.1113 27.9591 63.2446 27.8594 63.4206C27.8757 63.3799 27.8898 63.341 27.9022 63.3027Z" fill="white"/>
<path d="M29.6257 63.4247L27.4453 64.5003C27.4529 64.4852 27.4566 64.4773 27.4566 64.4773C27.4566 64.4773 27.5035 64.3931 27.5761 64.2616L29.6539 63.2363C29.6451 63.3006 29.6358 63.3635 29.6257 63.4247Z" fill="white"/>
<path d="M27.4423 64.5015L27.375 64.3605L27.5751 64.2617C27.5025 64.3932 27.4556 64.4774 27.4556 64.4774C27.4556 64.4774 27.4518 64.4854 27.4443 64.5005L27.4423 64.5015Z" fill="white"/>
<path d="M27.0608 46.1328L27.4004 46.6394C27.3296 46.6253 27.2591 46.6123 27.188 46.6005L26.9336 46.2211L27.0608 46.1328Z" fill="white"/>
<path d="M26.9595 56.2187C27.1489 56.4984 27.1807 56.711 27.2273 56.9533C27.2626 57.1365 27.2835 57.3854 27.2916 57.496C27.2558 57.4729 27.2195 57.4525 27.1842 57.4351C26.962 57.3273 26.9316 57.2903 26.9419 57.2685C26.952 57.2465 27.1071 57.1378 27.0605 56.9364C27.0139 56.735 26.7247 56.1878 26.2932 56.2825C26.2932 56.2825 26.2544 54.879 26.2982 54.7186C26.3 54.712 26.3022 54.7053 26.305 54.6986C26.3393 54.6127 26.4436 54.5295 26.565 54.4238L26.5939 54.4403C26.6061 54.4323 26.6401 54.4254 26.7164 54.4238C26.6307 54.4873 26.5136 54.5956 26.5101 54.6109C26.5061 54.6278 26.4723 55.2828 26.5378 55.5313C26.6038 55.7802 26.7706 55.9393 26.9595 56.2187Z" fill="white"/>
<path d="M27.1881 46.6003C26.8407 46.5401 26.489 46.4997 26.1341 46.4782C26.1162 46.1607 25.8559 45.9076 25.5391 45.9076V45.7334C27.374 45.7334 29.1002 46.2149 30.6017 47.0603C31.583 47.6124 32.4677 48.3199 33.2245 49.1496L33.028 49.1251C32.799 49.0923 32.4969 49.0691 32.1875 49.1C31.353 48.3161 30.4014 47.6923 29.3547 47.2422C28.7226 46.9707 28.0696 46.7691 27.401 46.6391L27.0614 46.1325L26.9339 46.2206L27.1881 46.6003Z" fill="white"/>
<path d="M29.0734 54.4119C29.0714 54.3996 29.0693 54.3868 29.0668 54.3735L28.2295 54.2949C28.1435 54.3935 27.9931 54.5426 27.8301 54.6222C27.5991 54.735 27.2646 54.5377 27.1257 54.4428C26.9867 54.3479 26.8242 54.3492 26.7383 54.4083C26.7308 54.4134 26.7232 54.4191 26.7148 54.4252C26.9247 54.4208 27.0371 54.5523 27.2557 54.7251C27.4747 54.8977 27.6797 54.9609 27.9644 54.8379C28.2488 54.7148 28.8683 54.4738 28.8683 54.4738C28.8683 54.4738 28.626 55.0208 28.1783 55.8789C27.7306 56.7371 27.6364 57.2466 27.6095 57.4139C27.5923 57.5214 27.6402 57.6122 27.6767 57.6633C27.7057 57.5541 27.7712 57.4356 27.8765 57.2658C27.9211 57.1941 27.9722 57.1132 28.0312 57.0198C28.2861 56.6145 28.7633 55.8097 28.8869 55.5584C28.9719 55.3852 29.0573 55.095 29.0819 54.8015C29.0933 54.6685 29.0922 54.5349 29.0734 54.4119Z" fill="white"/>
<path d="M28.8676 54.4731C28.8676 54.4731 28.6253 55.0201 28.1776 55.8783C27.73 56.7364 27.6357 57.2458 27.6088 57.4131C27.5916 57.5206 27.6395 57.6114 27.676 57.6626C27.6642 57.7079 27.6586 57.7511 27.6594 57.7962C27.6594 57.7962 27.479 57.6176 27.2896 57.4968C27.2815 57.3863 27.2606 57.1373 27.2254 56.9541C27.1788 56.7118 27.147 56.499 26.9575 56.2196C26.7684 55.9399 26.6018 55.781 26.5361 55.5323C26.4706 55.2836 26.5043 54.6286 26.5084 54.612C26.5119 54.5968 26.629 54.4887 26.7147 54.4249C26.9245 54.4206 27.0369 54.5521 27.2556 54.7248C27.4745 54.8975 27.6796 54.9607 27.9642 54.8377C28.2482 54.7141 28.8676 54.4731 28.8676 54.4731Z" fill="white"/>
<path d="M27.1012 54.1153C27.1012 54.1255 27.3294 54.4126 27.6401 54.432C27.9507 54.4512 28.1741 54.1552 28.2422 54.1268C28.2545 54.1217 28.2656 54.1194 28.2749 54.1194C28.3175 54.1194 28.3296 54.1654 28.3026 54.2064C28.2931 54.221 28.2683 54.2534 28.2324 54.2943C28.1464 54.3929 27.996 54.542 27.833 54.6216C27.6021 54.7344 27.2675 54.5372 27.1286 54.4423C26.9896 54.3473 26.8271 54.3486 26.7412 54.4077C26.7337 54.4128 26.7261 54.4184 26.7178 54.4246C26.6414 54.4262 26.6075 54.4328 26.5953 54.441L26.5664 54.4246C26.6611 54.3422 26.7664 54.2463 26.8581 54.1245C27.077 53.8341 27.3773 53.6887 27.5741 53.6782C27.7711 53.668 27.8872 53.7103 28.1296 53.8448C28.3716 53.9794 28.4185 54.0014 28.4072 54.0475C28.3986 54.0823 28.3641 54.0886 28.291 54.062C28.2674 54.0536 28.2399 54.0416 28.2079 54.0257C28.0766 53.9615 27.7814 53.8308 27.5691 53.8704C27.3574 53.9103 27.1012 54.1051 27.1012 54.1153Z" fill="white"/>
<path d="M25.1618 46.5138C25.1618 46.7249 25.3304 46.8958 25.538 46.8958C25.7455 46.8958 25.9141 46.7249 25.9141 46.5138C25.9141 46.4982 25.9133 46.4829 25.9113 46.4678C25.8891 46.2787 25.7304 46.1318 25.5382 46.1318C25.346 46.1318 25.1873 46.2784 25.1651 46.4678C25.1626 46.4826 25.1618 46.4982 25.1618 46.5138ZM25.538 45.9082C25.8552 45.9082 26.1154 46.1612 26.133 46.4788C26.1337 46.4903 26.1341 46.5021 26.1341 46.5138C26.1341 46.8477 25.8665 47.1194 25.5377 47.1194C25.2089 47.1194 24.9414 46.8477 24.9414 46.5138C24.9414 46.5021 24.9419 46.4903 24.9424 46.4788C24.9605 46.1612 25.2208 45.9082 25.538 45.9082Z" fill="white"/>
<path d="M26.0797 66.3307C26.0797 66.3307 27.5406 66.2299 28.4425 65.6623C29.3446 65.0951 30.0245 64.2607 30.2468 63.3038C30.2621 63.2373 30.2778 63.1669 30.2934 63.0943L31.0623 62.7148C30.9108 63.1974 30.7164 63.7045 30.4758 64.1343C30.4609 64.1612 30.4453 64.1881 30.4294 64.2147C30.0321 64.8835 29.3842 65.4963 28.5425 65.8967C28.5428 65.8969 28.5423 65.8972 28.5425 65.8967C27.7633 66.152 26.9566 66.3058 26.1326 66.3552C26.1016 66.3572 26.0704 66.3591 26.0391 66.3606L26.0797 66.3307Z" fill="white"/>
<path d="M26.0399 66.3601C26.0711 66.3585 26.1022 66.3568 26.1332 66.3547C26.9573 66.3053 27.7633 66.1518 28.5427 65.8965C27.8323 66.2347 26.9836 66.4223 26.0312 66.3649C26.037 66.3621 26.0399 66.3601 26.0399 66.3601Z" fill="white"/>
<path d="M25.538 45.7334V45.9076C25.2208 45.9076 24.9605 46.1607 24.9429 46.4782C24.588 46.4997 24.2363 46.5401 23.8889 46.6003L24.1432 46.2208L24.0159 46.1328L23.6762 46.6394C23.0076 46.7696 22.3547 46.971 21.7226 47.2425C20.6759 47.6925 19.7243 48.3161 18.8897 49.1003C18.5803 49.0693 18.2782 49.0926 18.0492 49.1253C17.9714 49.1363 17.9019 49.1484 17.8438 49.1599C19.7586 47.0536 22.4992 45.7334 25.538 45.7334Z" fill="white"/>
<path d="M25.5403 45.5322V45.7336C22.5016 45.7336 19.7609 47.0538 17.8455 49.1596C17.5477 49.4868 17.2698 49.833 17.0144 50.1961L16.8242 50.1101C17.1713 49.6132 17.5608 49.145 17.9908 48.7085C18.9713 47.7127 20.1133 46.9308 21.3845 46.3848C22.7005 45.8188 24.0988 45.5322 25.5403 45.5322Z" fill="white"/>
<path d="M28.9708 53.978C28.842 53.531 28.6395 52.9617 28.5553 52.7356C28.4392 52.4227 28.1868 51.315 27.2426 50.5152C26.478 49.8671 25.7781 49.7937 25.54 49.7891C25.302 49.7937 24.6024 49.8671 23.8376 50.5152C22.8934 51.315 22.6409 52.4227 22.5248 52.7356C22.4407 52.9617 22.2381 53.531 22.1094 53.978C22.2517 53.8649 22.5351 53.663 22.8686 53.5548C22.8233 53.4494 22.7304 53.1749 22.7948 52.8098C22.8782 52.3382 23.1911 51.6587 23.6383 51.1408C24.0688 50.6419 24.942 50.2808 25.5403 50.2665C26.1387 50.2808 27.0118 50.6419 27.4423 51.1408C27.8892 51.6587 28.2021 52.3382 28.2858 52.8098C28.3503 53.1749 28.2573 53.4497 28.2119 53.5548C28.545 53.6633 28.8284 53.8649 28.9708 53.978Z" fill="white"/>
<path d="M28.2876 52.7986C28.2042 52.327 27.8913 51.6475 27.4442 51.1296C27.0136 50.6307 26.1047 50.2634 25.5063 50.249V53.2234C25.4751 53.5571 25.4033 53.7838 25.3493 54.2766C25.2753 54.9575 25.3493 56.4167 25.3493 56.8936C25.3493 57.2792 25.4565 57.5644 25.5064 57.6596L25.5377 57.6915C25.7323 57.6685 26.0052 57.4095 26.0621 57.3184C26.1191 57.2273 26.1226 57.139 26.1453 57.139C26.1682 57.139 26.3856 57.2065 26.4985 57.1884C26.6111 57.1705 26.7247 57.0687 26.7633 57.0152C26.802 56.9612 26.7978 56.9149 26.6935 56.7742C26.5891 56.6329 26.4546 56.5894 26.3257 56.6836C26.1971 56.7775 26.048 56.8314 26.048 56.8314C26.048 56.8314 25.9699 56.8212 25.9699 56.2698C25.9699 55.795 25.9717 55.1932 25.9722 54.6346C25.9724 54.5446 25.9724 54.4558 25.9724 54.3688C25.9724 53.7419 26.1526 53.5477 26.3579 53.4966C26.5632 53.4452 27.2313 53.4282 27.8641 53.4725C27.9838 53.4807 28.1017 53.5068 28.2138 53.5431C28.2592 53.4385 28.3521 53.164 28.2876 52.7986Z" fill="white"/>
<path d="M26.1987 58.6271C25.7377 58.6614 25.5412 58.8666 25.5412 58.8666C25.5412 58.8666 25.3447 58.6614 24.8836 58.6271C24.4483 58.5948 23.9888 58.9346 23.6953 59.3494C23.7505 59.4172 23.9012 59.5536 24.2188 59.5638C24.6365 59.5771 25.035 59.3711 25.0471 59.365C25.0471 59.365 25.2547 59.5385 25.5412 59.562C25.8273 59.5385 26.035 59.3647 26.035 59.3647C26.047 59.3709 26.4458 59.5771 26.8635 59.5638C27.1812 59.5536 27.3318 59.4172 27.387 59.3494C27.0935 58.9346 26.634 58.5948 26.1987 58.6271Z" fill="white"/>
<path d="M25.9072 60.0723C25.8475 60.0058 25.7386 59.9091 25.5394 59.8887C25.3399 59.9091 25.2311 60.0058 25.1716 60.0723C25.1222 60.1271 25.0812 60.1637 25.0234 60.2251H25.5397H26.0558C25.9979 60.1637 25.9566 60.1271 25.9072 60.0723Z" fill="white"/>
<path d="M25.4561 48.7715V49.0135C25.4561 49.0135 24.729 49.1555 23.7495 49.8376C23.017 50.3476 22.0785 50.9977 21.0078 51.3772C21.391 51.174 21.7729 50.8967 22.2602 50.5093C22.7474 50.1222 23.0681 49.7965 23.8203 49.2837C24.4851 48.8303 25.2807 48.7776 25.4561 48.7715Z" fill="white"/>
<path d="M26.2569 60.4607C26.2247 60.4243 26.1869 60.3793 26.139 60.3223C26.106 60.2831 26.078 60.2519 26.0531 60.2256H25.5369H25.0207C24.9958 60.2519 24.9678 60.2834 24.9348 60.3223C24.8869 60.3793 24.8494 60.4243 24.8169 60.4607C24.8169 60.4607 24.7356 61.1134 24.8187 61.4826C24.9018 61.8518 25.1366 62.1261 25.3034 62.5132C25.3296 62.5744 25.3523 62.6371 25.3719 62.7002C25.3797 62.7256 25.3873 62.7509 25.3941 62.776C25.48 63.0858 25.4999 63.3786 25.5366 63.4343C25.5734 63.3786 25.5936 63.0861 25.679 62.7765C25.686 62.7509 25.6936 62.7256 25.7014 62.7C25.7211 62.6371 25.7438 62.5741 25.7699 62.513C25.9367 62.1258 26.1712 61.8516 26.2546 61.4824C26.3383 61.1134 26.2569 60.4607 26.2569 60.4607Z" fill="white"/>
<path d="M26.771 61.3275C26.6768 60.9138 26.4311 60.6096 26.3689 60.5651C26.3339 60.54 26.3009 60.5075 26.2596 60.4609C26.2596 60.4609 26.341 61.1136 26.2578 61.4828C26.1747 61.8521 25.9399 62.1264 25.7731 62.5134C25.7469 62.5746 25.7243 62.6373 25.7046 62.7005C25.6968 62.726 25.6892 62.7514 25.6822 62.777C25.5965 63.0865 25.5764 63.379 25.5398 63.4348C25.503 63.379 25.4829 63.086 25.3973 62.7765C25.3904 62.7511 25.3829 62.7258 25.3751 62.7007C25.3554 62.6378 25.3328 62.5748 25.3065 62.5137C25.1398 62.1266 24.9052 61.8523 24.8218 61.4831C24.7387 61.1139 24.8201 60.4612 24.8201 60.4612C24.7788 60.508 24.7458 60.5403 24.7108 60.5653C24.6487 60.6099 24.4029 60.914 24.3087 61.3278C24.2827 61.4422 24.2797 61.5501 24.2925 61.6542C24.315 61.8375 24.3863 62.0089 24.4669 62.1805C24.5064 62.2647 24.5483 62.3494 24.5878 62.4354C24.7339 62.7555 25.393 63.8447 25.5398 64.0865C25.6867 63.8447 26.3457 62.7555 26.4918 62.4354C26.5311 62.3494 26.5732 62.265 26.6128 62.1805C26.6934 62.0091 26.7646 61.8377 26.7871 61.6545C26.8002 61.5501 26.7969 61.4417 26.771 61.3275Z" fill="white"/>
<path d="M24.3896 56.785C24.494 56.6437 24.6284 56.6003 24.7575 56.6944C24.8859 56.7883 25.035 56.8423 25.035 56.8423C25.035 56.8423 25.1132 56.832 25.1132 56.2807C25.1132 55.8058 25.1114 55.204 25.1109 54.6455C25.1107 54.5554 25.1107 54.4666 25.1107 54.3796C25.1107 53.7528 24.9305 53.5586 24.7252 53.5074C24.5199 53.4559 23.8518 53.4391 23.219 53.4833C23.0993 53.4916 22.9814 53.5176 22.8693 53.554C22.8239 53.4485 22.731 53.174 22.7955 52.8089C22.8789 52.3373 23.1918 51.6578 23.6389 51.1399C24.0695 50.641 24.9426 50.28 25.541 50.2656V53.24C25.5097 53.5737 25.4454 53.7991 25.3916 54.2918C25.3175 54.9727 25.3606 56.4416 25.3606 56.9185C25.3606 57.3041 25.4911 57.5891 25.541 57.6843V57.6889C25.3464 57.6659 25.0779 57.4197 25.0209 57.3287C24.964 57.2376 24.9605 57.1493 24.9379 57.1493C24.9149 57.1493 24.6975 57.2169 24.5846 57.1987C24.4718 57.1808 24.3584 57.0789 24.3198 57.0255C24.2811 56.972 24.2851 56.9257 24.3896 56.785Z" fill="white"/>
<path d="M25.0427 66.3649C24.0905 66.4223 23.2416 66.2347 22.5312 65.8965C23.3105 66.1518 24.1167 66.3053 24.9407 66.3547C24.9717 66.3568 25.0029 66.3585 25.0342 66.3601C25.0342 66.3601 25.0369 66.3619 25.0427 66.3649Z" fill="white"/>
<path d="M20.7812 63.0938L21.4527 63.4249C21.4834 63.6166 21.5197 63.7933 21.5618 63.9459C21.8704 65.0655 23.4126 65.95 24.4132 65.7824C24.5996 66.0224 24.8007 66.2289 24.9951 66.3302C24.9951 66.3302 23.5343 66.2292 22.6323 65.6617C21.7302 65.0945 21.0503 64.2602 20.8281 63.3033C20.8125 63.2365 20.7968 63.1665 20.7812 63.0938Z" fill="white"/>
<path d="M22.8001 54.0582C22.72 54.0891 22.6824 54.084 22.6734 54.0475C22.662 54.0014 22.7088 53.9794 22.9509 53.8448C23.1933 53.7103 23.3094 53.668 23.5064 53.6782C23.7032 53.6885 24.0037 53.8338 24.2224 54.1245C24.3206 54.255 24.4348 54.3558 24.5343 54.442L24.4879 54.443C24.4784 54.4338 24.4456 54.4262 24.363 54.4243C24.3549 54.4182 24.3471 54.4128 24.3395 54.4075C24.2536 54.3483 24.0909 54.3471 23.9521 54.442C23.8133 54.5369 23.4787 54.7342 23.2477 54.6214C23.0847 54.5418 22.9343 54.3926 22.8484 54.2941C22.8126 54.2529 22.7879 54.2204 22.7781 54.2061C22.7514 54.1652 22.7633 54.1193 22.8053 54.1191C22.8149 54.1191 22.826 54.1214 22.8386 54.1265C22.9069 54.155 23.13 54.451 23.4407 54.4318C23.751 54.4126 23.9795 54.1255 23.9795 54.115C23.9795 54.1048 23.7236 53.9101 23.5115 53.8702C23.2991 53.8303 23.0038 53.9612 22.8726 54.0255C22.8454 54.039 22.8212 54.0498 22.8001 54.0582Z" fill="white"/>
<path d="M24.5317 54.4419C24.6445 54.5394 24.7391 54.6183 24.7718 54.6993C24.7745 54.7057 24.7768 54.7127 24.7786 54.7193C24.8225 54.88 24.7836 56.2831 24.7836 56.2831C24.3521 56.1882 24.0629 56.7357 24.0163 56.9371C23.9697 57.1384 24.1248 57.2472 24.1349 57.2692C24.145 57.291 24.1148 57.328 23.8926 57.4358C23.8573 57.4529 23.821 57.4736 23.7852 57.4967C23.7933 57.3861 23.8143 57.1372 23.8495 56.954C23.8961 56.7117 23.9279 56.4988 24.1173 56.2194C24.3065 55.9398 24.473 55.7809 24.5388 55.5321C24.6043 55.2835 24.5705 54.6285 24.5665 54.6118C24.563 54.5967 24.4458 54.4885 24.3602 54.4248C24.443 54.4263 24.4758 54.4343 24.4851 54.4435L24.5317 54.4419Z" fill="white"/>
<path d="M24.5701 54.6115C24.5742 54.6284 24.6079 55.2834 24.5424 55.5318C24.4769 55.7805 24.3101 55.9394 24.1209 56.2191C23.9315 56.4987 23.8997 56.7113 23.8531 56.9536C23.8179 57.1368 23.7969 57.3858 23.7889 57.4963C23.5992 57.6171 23.4191 57.7957 23.4191 57.7957C23.4198 57.7506 23.4143 57.7074 23.4024 57.6621C23.439 57.6112 23.4871 57.5204 23.4697 57.4126C23.4425 57.2451 23.3483 56.7356 22.9009 55.8778C22.4532 55.0196 22.2109 54.4726 22.2109 54.4726C22.2109 54.4726 22.8303 54.7136 23.1147 54.8366C23.3992 54.96 23.6045 54.8965 23.8234 54.7238C24.0421 54.5511 24.1544 54.4196 24.3643 54.4239C24.4494 54.4879 24.5666 54.5961 24.5701 54.6115Z" fill="white"/>
<path d="M22.5358 65.897C22.536 65.8975 22.5356 65.8972 22.5358 65.897C21.6941 65.4965 21.0454 64.8835 20.6484 64.2147C20.6323 64.1881 20.617 64.1612 20.602 64.1343C20.3615 63.7045 20.167 63.1974 20.0156 62.7148L20.7844 63.0943C20.8001 63.1669 20.8157 63.2373 20.831 63.3038C21.0533 64.261 21.7332 65.0951 22.6354 65.6623C23.5372 66.2299 24.9981 66.3307 24.9981 66.3307L25.0389 66.3603C25.0077 66.3588 24.9765 66.357 24.9455 66.355C24.1212 66.3058 23.315 66.1523 22.5358 65.897Z" fill="white"/>
<path d="M24.1428 46.2211L23.8884 46.6005C23.8173 46.6123 23.7463 46.6253 23.6758 46.6394L24.0154 46.1328L24.1428 46.2211Z" fill="white"/>
<path d="M23.8902 46.5996L22.8801 48.1066C22.7243 48.22 22.5815 48.3425 22.4492 48.4712L23.6779 46.6385C23.7487 46.6244 23.8192 46.6114 23.8902 46.5996Z" fill="white"/>
<path d="M27.8568 61.6613C27.856 61.6498 27.8366 61.2425 27.8104 60.7571C27.7832 60.2648 27.7227 59.8718 27.4333 59.4238C27.4172 59.3988 27.4005 59.3739 27.3831 59.3496C27.3279 59.4174 27.1773 59.5538 26.8596 59.564C26.442 59.5773 26.0433 59.3714 26.0312 59.3652C26.053 59.4558 26.1396 59.6288 26.4473 59.9095C26.8158 60.2454 27.0642 60.5424 27.2887 60.8267C27.3209 60.8676 27.3528 60.9083 27.3843 60.9487C27.4264 61.0027 27.4679 61.0562 27.51 61.1095C27.6067 61.232 27.6862 61.3538 27.7495 61.4618C27.7925 61.5362 27.8283 61.604 27.8568 61.6613Z" fill="white"/>
<path d="M24.2157 59.564C23.898 59.5538 23.7475 59.4174 23.6924 59.3496C23.675 59.3739 23.6584 59.3988 23.6422 59.4238C23.3528 59.8718 23.292 60.2648 23.2651 60.7571C23.2386 61.2425 23.2193 61.6498 23.2188 61.6613C23.2472 61.604 23.2827 61.5362 23.3263 61.462C23.3895 61.354 23.4688 61.232 23.5655 61.1095C23.6076 61.0562 23.6492 61.0025 23.6912 60.9487C23.7227 60.9083 23.7549 60.8676 23.7871 60.8267C24.0116 60.5424 24.2599 60.2454 24.6285 59.9095C24.9361 59.629 25.0226 59.4558 25.0443 59.3652C25.032 59.3716 24.6334 59.5776 24.2157 59.564Z" fill="white"/>
<path d="M23.7042 64.3605L23.637 64.5015L23.6347 64.5005C23.6271 64.4854 23.6233 64.4774 23.6233 64.4774C23.6233 64.4774 23.5765 64.3932 23.5039 64.2617L23.7042 64.3605Z" fill="white"/>
<path d="M23.5037 64.2623C23.5762 64.3938 23.623 64.478 23.623 64.478C23.623 64.478 23.6268 64.4859 23.6344 64.501L21.454 63.4254C21.4442 63.3642 21.4345 63.3013 21.4258 63.2373L23.5037 64.2623Z" fill="white"/>
<path d="M24.4272 57.4043C24.4272 57.4043 24.8262 57.6399 24.8665 57.6709C24.907 57.7018 24.9474 57.753 24.806 57.8272C24.6647 57.9017 23.4529 58.7373 23.1171 59.2964C23.0413 59.4227 22.9703 59.555 22.9063 59.6919C22.6871 60.1614 22.5518 60.6846 22.5946 61.1987C22.6501 61.8626 22.8597 62.624 22.9833 62.9498C23.0449 63.1117 23.1189 63.2451 23.2187 63.4211C23.3198 63.5992 23.4472 63.8215 23.6147 64.16C23.6487 64.2283 23.6817 64.2935 23.7142 64.3557L23.7039 64.3614L23.5038 64.2626C23.3597 64.0009 23.1146 63.5511 22.9383 63.2013C22.6732 62.6758 22.254 62.0553 22.0649 61.3013C21.8754 60.5478 21.8225 59.1937 22.0649 58.54C22.3072 57.8861 22.999 57.4477 23.0846 57.4759C23.1703 57.504 22.673 58.8064 22.673 58.8064C22.673 58.8064 22.8272 58.509 23.3219 58.0603C23.8162 57.6118 24.4272 57.4043 24.4272 57.4043Z" fill="white"/>
<path d="M23.8218 54.725C24.0404 54.5524 24.1528 54.4208 24.3626 54.4252C24.3546 54.419 24.3468 54.4137 24.3392 54.4083C24.2533 54.3492 24.0906 54.3479 23.9517 54.4429C23.813 54.5378 23.4784 54.735 23.2474 54.6222C23.0844 54.5426 22.934 54.3935 22.8481 54.2949L22.0107 54.3735C22.0081 54.3868 22.0062 54.3996 22.0041 54.4119C21.9852 54.5352 21.9842 54.6685 21.9958 54.801C22.0208 55.0945 22.1059 55.3849 22.1908 55.5582C22.3145 55.8094 22.7916 56.6143 23.0466 57.0196C23.1053 57.1127 23.1567 57.1938 23.2013 57.2655C23.3066 57.4354 23.3721 57.5538 23.401 57.6631C23.4376 57.6122 23.4857 57.5214 23.4683 57.4136C23.4411 57.2461 23.3469 56.7366 22.8995 55.8787C22.4518 55.0206 22.2094 54.4735 22.2094 54.4735C22.2094 54.4735 22.8289 54.7146 23.1134 54.8377C23.3975 54.9609 23.6029 54.8978 23.8218 54.725Z" fill="white"/>
<path d="M27.9611 59.2957C27.6253 58.7367 26.4136 57.901 26.2722 57.8265C26.1309 57.7523 26.1712 57.7012 26.2118 57.6702C26.252 57.6393 26.6511 57.4036 26.6511 57.4036C26.5047 57.3652 26.3027 57.4292 26.1588 57.5651C26.015 57.7009 25.7777 57.9033 25.5555 57.9087C25.5502 57.9089 25.5447 57.9087 25.5392 57.9084C25.5336 57.9087 25.528 57.9089 25.5227 57.9087C25.3005 57.9035 25.0632 57.7012 24.9193 57.5651C24.7752 57.4292 24.5735 57.3652 24.427 57.4036C24.427 57.4036 24.8261 57.6393 24.8664 57.6702C24.907 57.7012 24.9473 57.7523 24.806 57.8265C24.6646 57.901 23.4529 58.7367 23.1171 59.2957C23.0413 59.4221 22.9703 59.5544 22.9062 59.6913L22.9116 59.6938C23.1088 59.2727 23.578 58.9544 23.7899 58.8057C24.0456 58.6261 24.4795 58.3117 24.8652 58.3117C25.2507 58.3117 25.5394 58.5271 25.5394 58.5271C25.5394 58.5271 25.8283 58.3117 26.2135 58.3117C26.5989 58.3117 27.0332 58.6261 27.2889 58.8057C27.5008 58.9544 27.9697 59.2727 28.1672 59.6938L28.1724 59.6913C28.108 59.5544 28.0369 59.4221 27.9611 59.2957Z" fill="white"/>
<path d="M22.8276 59.9701C22.7535 60.5271 22.909 62.8751 23.1751 63.3027C23.1874 63.3408 23.2015 63.3799 23.2179 63.4206C23.1178 63.2443 23.044 63.111 22.9825 62.9493C22.8591 62.6236 22.6495 61.8622 22.5938 61.1982C22.551 60.6842 22.6863 60.1607 22.9055 59.6914L22.9108 59.694C22.8697 59.782 22.8402 59.8741 22.8276 59.9701Z" fill="white"/>
<path d="M22.8806 48.1074L22.4238 48.7883L21.9727 49.0083C22.0497 48.9093 22.1303 48.8118 22.2158 48.7164L22.3198 48.6657L22.4498 48.472C22.582 48.3433 22.7249 48.2208 22.8806 48.1074Z" fill="white"/>
<path d="M21.6785 51.5114C22.4837 51.1757 22.7529 51.0166 22.7613 51.0117C22.7472 51.0307 21.846 52.2583 21.6306 53.642C21.5861 53.9278 21.5611 54.2006 21.5495 54.463C21.3581 54.5244 21.1303 54.5551 20.9102 54.5684C20.9114 54.386 20.9104 54.2921 20.9104 54.2921C20.9104 54.2921 20.9507 53.3209 21.1797 52.5756C21.3412 52.0498 21.5379 51.6923 21.6397 51.5275C21.6526 51.5222 21.6654 51.5168 21.6785 51.5114Z" fill="white"/>
<path d="M22.4489 48.4717L22.3189 48.6654L22.2148 48.716C22.2892 48.6326 22.367 48.5507 22.4489 48.4717Z" fill="white"/>
<path d="M20.7226 51.7788C20.9936 51.7346 21.3168 51.6588 21.6404 51.5283C21.5386 51.6931 21.3418 52.0506 21.1803 52.5763C20.9513 53.3217 20.911 54.2929 20.911 54.2929C20.911 54.2929 20.9068 54.3991 20.8979 54.57C20.5918 54.5879 20.3026 54.5726 20.1484 54.5605C20.2903 53.1384 20.6357 52.0392 20.7226 51.7788Z" fill="white"/>
<path d="M21.5467 54.4629C21.5015 55.482 21.658 56.3455 21.658 57.2057C21.658 58.2878 21.1985 60.3182 19.1133 60.677C19.1133 60.677 19.2546 60.5385 19.5628 60.2583C19.8709 59.9779 20.352 59.149 20.5573 58.3082C20.7627 57.4672 20.8332 57.0158 20.8738 55.9425C20.8977 55.3021 20.9052 54.8382 20.9073 54.5683C21.1272 54.555 21.355 54.5246 21.5467 54.4629Z" fill="white"/>
<path d="M21.4541 63.4256L20.7827 63.0945C20.7694 63.0316 20.7555 62.9669 20.7422 62.9004L21.4259 63.2376C21.4347 63.3015 21.4443 63.3644 21.4541 63.4256Z" fill="white"/>
<path d="M21.4272 63.2373L20.7435 62.9001C20.5846 62.1161 20.4324 61.1329 20.3828 60.8046C20.8262 60.5935 21.268 60.2852 21.268 60.2852C21.268 60.2852 21.2544 61.9941 21.4272 63.2373Z" fill="white"/>
<path d="M20.7806 63.0942L20.0117 62.7147C19.9898 62.6459 19.9689 62.5774 19.9492 62.5098L20.74 62.9C20.7536 62.9665 20.7672 63.0313 20.7806 63.0942Z" fill="white"/>
<path d="M20.028 51.84C20.028 51.84 20.316 51.8443 20.7198 51.7783C20.6329 52.0388 20.2873 53.138 20.1457 54.56C20.1451 54.5652 20.1446 54.5705 20.1441 54.5756C19.9825 56.2165 19.6947 57.232 19.4826 57.9394C19.2838 58.6032 18.4449 60.2056 17.1372 60.4522C17.0899 60.4325 17.04 60.419 16.9883 60.4121V60.1662C17.3912 59.7942 18.3107 58.8505 18.7757 57.6112C19.0163 56.9697 19.1891 56.2973 19.3236 55.652L19.4622 55.8703L19.7653 55.573L19.434 55.0892C19.5743 54.3252 19.6701 53.6272 19.7756 53.0991C19.9928 52.0117 20.028 51.84 20.028 51.84Z" fill="white"/>
<path d="M20.5994 64.1336C20.6143 64.1604 20.6299 64.1874 20.6458 64.2139C20.5336 64.2966 20.2971 64.4685 20.2822 64.4616C20.2505 64.3795 20.2296 64.325 20.2296 64.325C20.0709 63.9294 19.8207 63.1846 19.6016 62.5117L20.0127 62.7143C20.1641 63.1967 20.3586 63.7038 20.5994 64.1336Z" fill="white"/>
<path d="M20.1491 54.5605C20.3033 54.5723 20.5925 54.5879 20.8985 54.5699C20.8834 54.8744 20.8547 55.3846 20.8139 55.8685C20.7502 56.624 20.6272 57.8631 20.1577 59.0529C19.7193 60.1633 18.5635 60.8495 17.4958 60.8772C17.4827 60.8199 17.4616 60.7638 17.4311 60.7103C17.3643 60.5927 17.2608 60.5034 17.1406 60.453C18.4484 60.2063 19.2873 58.6038 19.486 57.9402C19.6981 57.2327 19.9858 56.2172 20.1476 54.5764C20.1479 54.571 20.1486 54.5656 20.1491 54.5605Z" fill="white"/>
<path d="M20.3809 60.8047C20.4306 61.1329 20.5828 62.1162 20.7417 62.9002L19.9509 62.51C19.7617 61.868 19.6496 61.2974 19.6055 61.0521C19.7912 61.0175 20.0106 60.9633 20.2164 60.8781C20.2706 60.8556 20.3257 60.8308 20.3809 60.8047Z" fill="white"/>
<path d="M20.1588 51.4453V51.6019H19.9414C19.9792 51.5671 20.0349 51.5147 20.1047 51.4453H20.1588Z" fill="white"/>
<path d="M17.5356 51.4453H20.1032C20.0337 51.5147 19.978 51.5669 19.94 51.6019H17.4961C17.5168 51.551 17.5299 51.4983 17.5356 51.4453Z" fill="white"/>
<path d="M20.0136 62.7146L19.6025 62.512C19.5798 62.4419 19.5574 62.3725 19.5352 62.3047L19.9509 62.5096C19.9711 62.5775 19.9919 62.6457 20.0136 62.7146Z" fill="white"/>
<path d="M21.0084 51.3782C20.6474 51.5061 20.2714 51.6031 19.8828 51.6537C19.8828 51.6537 19.903 51.6363 19.9403 51.602H20.1577V51.4454H20.1036C20.384 51.1671 20.8915 50.6172 21.3927 49.8433C21.5713 49.5677 21.7577 49.2832 21.9716 49.0086L22.4227 48.7886L22.8795 48.1077C23.4892 47.663 24.2978 47.3514 25.4572 47.3281V47.9854L25.4206 47.9867C25.3824 47.9893 25.3443 47.9939 25.3063 47.9972C25.2872 47.9992 25.268 48.0008 25.2491 48.0033L25.1921 48.0123C25.1544 48.0187 25.1161 48.023 25.0788 48.0312L24.9667 48.0561C24.9291 48.064 24.8926 48.0758 24.8556 48.0852L24.8004 48.1003C24.782 48.1057 24.7642 48.1121 24.7458 48.118C24.7097 48.1297 24.6732 48.1418 24.6374 48.1546C24.4946 48.2075 24.3555 48.27 24.2202 48.3383C24.0852 48.4079 23.9552 48.4859 23.8287 48.5693C23.5765 48.7369 23.3415 48.9278 23.1233 49.1353C22.9065 49.3446 22.7014 49.5664 22.5253 49.8105C22.7308 49.5925 22.95 49.3896 23.1798 49.2013C23.2942 49.1066 23.4113 49.0158 23.5322 48.9306C23.6529 48.8456 23.7748 48.7627 23.9013 48.6873C23.9648 48.6504 24.0278 48.6126 24.0928 48.579C24.1568 48.5437 24.2225 48.5112 24.2878 48.4787C24.4198 48.4166 24.5543 48.3608 24.6918 48.3142C24.8297 48.2697 24.969 48.2298 25.1105 48.2044C25.1458 48.197 25.1816 48.1929 25.2171 48.1873L25.2703 48.1794C25.2881 48.1768 25.306 48.1758 25.3239 48.174C25.3597 48.1709 25.3952 48.1671 25.431 48.1645L25.4569 48.1638V48.7719C25.2816 48.7781 24.486 48.8308 23.8212 49.2842C23.0687 49.7969 22.7482 50.1226 22.261 50.5097C21.7738 50.8974 21.3916 51.1745 21.0084 51.3782Z" fill="white"/>
<path d="M19.4346 55.0889L19.7658 55.5727L19.4628 55.87L19.3242 55.6518C19.3643 55.4614 19.4006 55.2731 19.4346 55.0889Z" fill="white"/>
<path d="M19.6057 61.0518C19.65 61.2971 19.7621 61.8674 19.9511 62.5097L19.5354 62.3048C19.3238 61.6487 19.1562 61.1091 19.1562 61.1091C19.1562 61.1091 19.3482 61.0994 19.6057 61.0518Z" fill="white"/>
<path d="M19.6007 62.5117L17.3633 61.4076C17.3973 61.3672 17.4258 61.3227 17.4482 61.2754L19.5336 62.3042C19.5555 62.3723 19.578 62.4416 19.6007 62.5117Z" fill="white"/>
<path d="M18.0492 49.1256C18.2782 49.0928 18.5803 49.0695 18.8896 49.1005C18.7936 49.1903 18.6992 49.2824 18.6062 49.3768C18.1344 49.856 17.7156 50.3767 17.3531 50.9342C17.3199 50.9023 17.2826 50.8739 17.2415 50.8498C17.1511 50.7966 17.048 50.7687 16.9438 50.7687C16.9045 50.7687 16.8659 50.7728 16.8281 50.7802C16.916 50.6282 17.0352 50.4499 17.166 50.2662C17.4872 49.8154 17.8786 49.3328 18.0492 49.1256Z" fill="white"/>
<path d="M18.4219 63.2646C19.0821 63.9477 20.2821 64.462 20.2821 64.462C20.3309 64.5892 20.4052 64.7824 20.4665 64.9403C19.7928 64.5266 19.1703 64.0305 18.606 63.4571C18.5438 63.3937 18.4826 63.3293 18.4219 63.2646Z" fill="white"/>
<path d="M17.8431 49.1596C17.9015 49.148 17.971 49.136 18.0486 49.125C17.8781 49.3322 17.4866 49.8148 17.1654 50.2656L17.0117 50.196C17.2674 49.833 17.5453 49.4868 17.8431 49.1596Z" fill="white"/>
<path d="M17.2422 50.849C17.2833 50.873 17.3206 50.9014 17.3538 50.9333C17.3883 50.9661 17.4183 51.0032 17.4437 51.0426C17.472 51.0866 17.4941 51.1342 17.5102 51.1839C17.5372 51.2673 17.5463 51.3563 17.5359 51.4446C17.5299 51.4975 17.5171 51.5503 17.4966 51.6012C17.4866 51.6268 17.4745 51.6518 17.4606 51.6761C17.4092 51.7665 17.3367 51.8402 17.251 51.8921L17.177 51.7782L16.9852 51.9627L16.9941 51.9763C16.9928 51.9765 16.9915 51.9768 16.99 51.9768C16.9749 51.978 16.9593 51.9788 16.9437 51.9788C16.9076 51.9788 16.8711 51.9755 16.8358 51.9688C16.8147 51.9648 16.7935 51.9596 16.7731 51.9535C16.7288 51.9402 16.6865 51.9215 16.6462 51.8977C16.5083 51.8169 16.4093 51.6861 16.3683 51.5301C16.3431 51.4349 16.3411 51.3369 16.3617 51.2432C16.3746 51.1838 16.397 51.1253 16.4277 51.071C16.4277 51.0713 16.4277 51.0708 16.4277 51.071C16.4582 51.0173 16.4963 50.9692 16.5401 50.9285C16.6207 50.853 16.721 50.8011 16.8293 50.7791C16.8668 50.7717 16.9056 50.7676 16.9449 50.7676C17.0485 50.7678 17.1515 50.7957 17.2422 50.849ZM16.756 51.7042C16.7696 51.7122 16.7834 51.7193 16.7976 51.725C16.8036 51.7276 16.8094 51.7301 16.8154 51.7322C16.822 51.7348 16.8285 51.737 16.8356 51.739C16.8353 51.7393 16.8358 51.7393 16.8356 51.739C16.8416 51.7414 16.8489 51.7429 16.8552 51.7445C16.8623 51.7465 16.8696 51.748 16.8769 51.749C16.8825 51.7501 16.888 51.7511 16.8935 51.7516C16.8973 51.7524 16.9011 51.7526 16.9049 51.7529C16.9074 51.7534 16.9104 51.7536 16.9132 51.7536C16.9175 51.7541 16.922 51.7544 16.9263 51.7544C16.9323 51.755 16.9386 51.755 16.9447 51.755C16.9525 51.755 16.9603 51.7547 16.9681 51.7541C16.9754 51.7536 16.9827 51.7531 16.99 51.7521C16.9958 51.7514 17.0016 51.7506 17.0074 51.7496C17.0079 51.7496 17.0082 51.7496 17.0089 51.7493C17.0132 51.7485 17.0175 51.7478 17.022 51.7468C17.0255 51.746 17.0293 51.7455 17.0331 51.7442C17.0349 51.7439 17.0366 51.7434 17.0386 51.7429C17.0404 51.7424 17.0422 51.7421 17.0442 51.7416C17.0633 51.7363 17.082 51.7293 17.1004 51.7209C17.1052 51.7186 17.1099 51.7166 17.1147 51.7137C17.1261 51.7081 17.1374 51.7017 17.1482 51.6943C17.153 51.6915 17.1578 51.6881 17.1623 51.6846C17.1631 51.684 17.1641 51.6835 17.1649 51.6828C17.1691 51.68 17.1729 51.6769 17.1767 51.6736C17.179 51.672 17.181 51.6705 17.183 51.6684C17.1863 51.6659 17.1893 51.6633 17.1926 51.6605C17.2049 51.6496 17.2168 51.6377 17.2273 51.625C17.2311 51.6209 17.2344 51.617 17.2374 51.6127C17.2407 51.6088 17.2435 51.605 17.2462 51.6012C17.2548 51.5897 17.2629 51.5771 17.2702 51.5644C17.2734 51.5582 17.2767 51.5523 17.2797 51.5462C17.2815 51.5433 17.2828 51.5403 17.284 51.5372C17.2896 51.5257 17.2944 51.5141 17.2984 51.5024C17.2996 51.4985 17.3011 51.4945 17.3024 51.4906C17.3044 51.4853 17.3059 51.4797 17.3072 51.474C17.308 51.4709 17.309 51.4678 17.3097 51.4646C17.3107 51.461 17.3117 51.4574 17.3122 51.4535C17.313 51.4507 17.3135 51.4476 17.314 51.4446C17.3155 51.4384 17.3165 51.4318 17.3173 51.4254C17.318 51.4198 17.3185 51.4144 17.319 51.4087C17.3198 51.4029 17.32 51.3972 17.3203 51.3916C17.3208 51.3855 17.3208 51.3794 17.3208 51.3729C17.3208 51.365 17.3206 51.3568 17.32 51.3489C17.3198 51.3415 17.3193 51.3343 17.318 51.3269C17.3175 51.3228 17.3173 51.3189 17.3163 51.3149C17.3158 51.3103 17.315 51.3054 17.314 51.3005C17.313 51.2944 17.3115 51.288 17.3097 51.2818C17.3099 51.282 17.3097 51.2816 17.3097 51.2818C17.3089 51.2779 17.3075 51.2731 17.3064 51.2696C17.3054 51.2652 17.3039 51.2606 17.3024 51.2563C17.2999 51.2473 17.2964 51.2383 17.2928 51.2297C17.2903 51.2232 17.2878 51.2169 17.285 51.211C17.2807 51.2015 17.276 51.1923 17.2707 51.1833C17.2679 51.178 17.2646 51.1726 17.2611 51.1675C17.2556 51.1582 17.2495 51.1493 17.2427 51.1409C17.2392 51.1363 17.2354 51.1314 17.2314 51.1268C17.2289 51.124 17.2266 51.1209 17.2241 51.1183C17.2203 51.114 17.2165 51.1099 17.2127 51.1058C17.2072 51.1 17.2014 51.0943 17.1953 51.089C17.1946 51.0881 17.1938 51.0876 17.1928 51.0866C17.1883 51.0825 17.1832 51.0784 17.1782 51.0746C17.1699 51.0674 17.1608 51.061 17.1515 51.0547C17.1455 51.0503 17.1387 51.0465 17.1321 51.0426C17.0051 50.9679 16.853 50.9774 16.7378 51.0539C16.69 51.0856 16.6487 51.1289 16.6182 51.1826C16.5144 51.3653 16.5761 51.5986 16.756 51.7042Z" fill="white"/>
<path d="M17.1388 60.4521C17.259 60.5025 17.3625 60.5917 17.4293 60.7095C17.4598 60.763 17.4809 60.8191 17.494 60.8764C17.5245 61.0117 17.5076 61.1525 17.4497 61.2751C17.4275 61.3221 17.3991 61.3665 17.3648 61.4072C17.3222 61.4576 17.2708 61.5016 17.2109 61.5366C17.1905 61.5487 17.1693 61.5594 17.1476 61.5687C17.0736 61.6011 16.9937 61.6177 16.9129 61.6177C16.8108 61.6177 16.7128 61.5911 16.6262 61.5431C16.5677 61.5104 16.5141 61.4673 16.469 61.4166C16.4415 61.3857 16.4171 61.3519 16.3962 61.3148C16.3816 61.2892 16.369 61.2629 16.3586 61.236C16.3319 61.1682 16.3178 61.0968 16.3166 61.0244C16.3153 60.9682 16.3221 60.9111 16.3367 60.855C16.376 60.7061 16.4672 60.5807 16.5952 60.4991C16.6015 60.495 16.608 60.4912 16.6146 60.4874C16.6829 60.4475 16.7582 60.4213 16.8358 60.4111C16.8423 60.4103 16.8491 60.4096 16.8559 60.4088C16.8746 60.4071 16.8935 60.4062 16.9126 60.4062C16.9386 60.4062 16.9645 60.4081 16.9902 60.4114C17.0413 60.4186 17.0915 60.4324 17.1388 60.4521ZM16.6894 60.7052C16.6834 60.7096 16.6773 60.7143 16.6715 60.7194C16.6657 60.724 16.6604 60.729 16.6551 60.7341C16.6551 60.7341 16.6539 60.735 16.6531 60.736C16.6488 60.7399 16.6448 60.744 16.641 60.7481C16.6385 60.7506 16.6365 60.7531 16.6345 60.7556C16.631 60.7592 16.6277 60.7632 16.6247 60.767C16.6204 60.7722 16.6163 60.7773 16.6123 60.7827C16.6075 60.789 16.6027 60.796 16.5982 60.8032C16.5939 60.8099 16.5894 60.8172 16.5856 60.8242C16.5813 60.8311 16.5778 60.8382 16.5743 60.8456L16.5735 60.8476C16.5702 60.8545 16.5672 60.8614 16.5644 60.8686C16.5614 60.8763 16.5584 60.8838 16.5561 60.8917C16.5539 60.8984 16.5518 60.905 16.5501 60.9122C16.5493 60.9145 16.5491 60.9164 16.5486 60.9185C16.5466 60.9251 16.5451 60.9318 16.544 60.939C16.5423 60.9469 16.541 60.9554 16.54 60.9636C16.534 61.012 16.5367 61.0616 16.5493 61.11C16.5516 61.1179 16.5539 61.126 16.5564 61.1339C16.5604 61.1459 16.5649 61.1579 16.57 61.1693C16.575 61.1808 16.5811 61.1926 16.5874 61.2038C16.6569 61.3263 16.7836 61.3949 16.9134 61.3947C16.9197 61.3947 16.9265 61.3944 16.9328 61.3942C16.9363 61.3939 16.9401 61.3936 16.9436 61.3934C16.9511 61.3929 16.9585 61.3921 16.9658 61.3909C16.9718 61.3901 16.9779 61.389 16.9839 61.3878L16.9857 61.3872C16.9932 61.3859 17.0005 61.3843 17.0078 61.3824C17.0088 61.3822 17.0109 61.3816 17.0109 61.3816C17.0169 61.3801 17.0224 61.3784 17.0282 61.3763C17.0305 61.3758 17.0325 61.375 17.0345 61.3742C17.0416 61.3716 17.0486 61.3691 17.0554 61.3662C17.063 61.3632 17.0703 61.3599 17.0776 61.356L17.0786 61.3555C17.0862 61.3519 17.0935 61.3479 17.1005 61.3438C17.1068 61.3399 17.1134 61.3359 17.1194 61.332C17.1214 61.3308 17.1235 61.3295 17.1252 61.3283C17.1313 61.3239 17.1368 61.3197 17.1424 61.3153C17.1464 61.3122 17.1509 61.3082 17.155 61.3048C17.1597 61.301 17.1645 61.2959 17.1691 61.291C17.1701 61.2903 17.1713 61.2892 17.1723 61.2882C17.1764 61.2846 17.1801 61.2805 17.1837 61.2767C17.1953 61.2644 17.2061 61.2514 17.2157 61.2381C17.2189 61.2338 17.2217 61.2296 17.2247 61.225C17.2265 61.2224 17.228 61.2203 17.2293 61.2177C17.2331 61.212 17.2363 61.2063 17.2393 61.2007C17.2426 61.1951 17.2456 61.1893 17.2484 61.1837C17.2494 61.1816 17.2507 61.1795 17.2514 61.1774C17.2519 61.1764 17.2522 61.1754 17.2527 61.1744C17.2555 61.1682 17.2582 61.1623 17.2605 61.1559C17.2635 61.1485 17.2663 61.1412 17.2686 61.1338C17.2706 61.1282 17.2724 61.1222 17.2739 61.1166C17.2754 61.111 17.2766 61.1055 17.2781 61.0999C17.2789 61.0973 17.2794 61.095 17.2797 61.0925C17.2804 61.0887 17.2814 61.0848 17.2819 61.0812C17.2827 61.0768 17.2834 61.0729 17.2842 61.0685C17.2849 61.0647 17.2852 61.0608 17.2857 61.0569C17.2882 61.0352 17.289 61.0135 17.2877 60.9915C17.2875 60.9861 17.2872 60.9807 17.2867 60.9755C17.2867 60.9743 17.2865 60.9731 17.2862 60.9715C17.286 60.9677 17.2855 60.9641 17.2849 60.9603C17.2842 60.9532 17.2829 60.946 17.2814 60.9388C17.2802 60.9311 17.2784 60.9237 17.2766 60.9165C17.2749 60.9094 17.2729 60.9026 17.2706 60.8959C17.2691 60.891 17.2676 60.886 17.2656 60.8811C17.2653 60.8796 17.2648 60.8784 17.264 60.8769C17.2623 60.8717 17.2603 60.8668 17.258 60.8617C17.2557 60.8558 17.2527 60.8492 17.2497 60.8433C17.2462 60.8356 17.2421 60.8283 17.2381 60.8208C17.2232 60.7948 17.2058 60.7709 17.1859 60.75C17.1842 60.748 17.1824 60.7458 17.1807 60.744C17.1789 60.7419 17.1769 60.7402 17.1749 60.7381C17.1688 60.7319 17.1625 60.7264 17.1562 60.7211C17.1499 60.7154 17.1434 60.7101 17.1366 60.7052C17.13 60.7001 17.1232 60.6954 17.1164 60.6908C17.1096 60.6862 17.1023 60.6818 17.095 60.6778L17.093 60.6768C17.0897 60.6748 17.0859 60.673 17.0824 60.6712C17.0781 60.6689 17.0741 60.6668 17.0696 60.665C17.0643 60.6625 17.0592 60.6602 17.0539 60.6581C17.0464 60.6551 17.0391 60.652 17.0313 60.6497L17.0303 60.6492C17.0245 60.6471 17.0187 60.6452 17.0126 60.6437C17.0093 60.643 17.0063 60.642 17.003 60.6412C16.9985 60.64 16.9937 60.6388 16.9894 60.6381C16.9842 60.6368 16.9786 60.6358 16.9733 60.6353C16.9716 60.6345 16.9698 60.6345 16.968 60.6345C16.964 60.6337 16.9602 60.6333 16.9562 60.6328C16.9496 60.632 16.9431 60.6312 16.9363 60.631C16.9285 60.6302 16.9204 60.6301 16.9124 60.6301C16.9053 60.6301 16.8982 60.6305 16.8914 60.631C16.8874 60.6312 16.8836 60.6314 16.8799 60.6316C16.8766 60.6319 16.8736 60.6322 16.8703 60.6325C16.866 60.633 16.8612 60.6335 16.8569 60.6345C16.8547 60.6345 16.8526 60.6348 16.8504 60.6356C16.8456 60.6361 16.8408 60.6368 16.836 60.6381C16.8312 60.6389 16.8257 60.6402 16.8209 60.6417C16.8166 60.6425 16.8121 60.6437 16.8078 60.6452C16.8065 60.6452 16.8053 60.6457 16.804 60.6462C16.8 60.647 16.7962 60.6486 16.7927 60.6498C16.7831 60.6529 16.774 60.6565 16.765 60.6606C16.7589 60.6632 16.7531 60.6657 16.7473 60.6688C16.7395 60.6724 16.732 60.6767 16.7242 60.681C16.7181 60.6846 16.7118 60.6885 16.706 60.6926C16.7005 60.6961 16.6949 60.7001 16.6897 60.7042L16.6894 60.7052Z" fill="white"/>
<path d="M17.4453 51.0436L22.2163 48.7168C22.1308 48.8122 22.0502 48.9097 21.9732 49.0087L17.5118 51.1845C17.4957 51.1355 17.4735 51.0876 17.4453 51.0436Z" fill="white"/>
<path d="M17.1761 51.7783L17.2502 51.8922C17.1728 51.9392 17.0849 51.9689 16.9932 51.9766L16.9844 51.9631L17.1761 51.7783Z" fill="white"/>
<path d="M16.8227 50.1094L17.0129 50.1953C16.8454 50.4325 16.6875 50.6771 16.5398 50.9281C16.496 50.9688 16.4582 51.0164 16.4277 51.0701C16.4277 51.0704 16.4277 51.0699 16.4277 51.0701C16.397 51.1244 16.3743 51.183 16.3617 51.2423C15.5397 52.7524 15.0683 54.4859 15.0605 56.3281C15.0051 56.2777 14.9376 56.241 14.8633 56.2221C14.8822 54.8123 15.1641 53.4448 15.7014 52.1542C16.0032 51.4293 16.3786 50.7457 16.8227 50.1094Z" fill="white"/>
<path d="M16.9922 51.977C17.0839 51.9694 17.1719 51.9399 17.2492 51.8926L17.3268 52.0121L19.4339 55.0893C19.3999 55.2735 19.3636 55.4619 19.3238 55.6525L16.9922 51.977Z" fill="white"/>
<path d="M16.9904 60.166V60.4119C16.9649 60.4085 16.9387 60.4068 16.9128 60.4068C16.8939 60.4068 16.875 60.4075 16.8561 60.4093L16.8359 60.3871V60.3031C16.8702 60.2744 16.9229 60.2282 16.9904 60.166Z" fill="white"/>
<path d="M16.9438 51.9788C16.9591 51.9788 16.9747 51.978 16.9901 51.9767V60.166C16.9228 60.2281 16.8699 60.2743 16.8359 60.3033V51.9688C16.8715 51.9753 16.9077 51.9788 16.9438 51.9788Z" fill="white"/>
<path d="M16.8359 60.3867L16.856 60.4089C16.8495 60.4097 16.8427 60.4105 16.8359 60.4112V60.3867Z" fill="white"/>
<path d="M16.625 61.543C16.7114 61.5911 16.8097 61.6177 16.9117 61.6177C16.9926 61.6177 17.0724 61.6008 17.1465 61.5686C17.4914 62.1473 17.8942 62.689 18.3519 63.1889C18.3537 63.191 18.3557 63.1933 18.3577 63.1951C18.3774 63.2171 18.3975 63.2386 18.4182 63.2603L18.4212 63.2636C18.4817 63.3284 18.5432 63.3926 18.6056 63.4561C19.1699 64.0292 19.7924 64.5255 20.4661 64.9393C20.4913 65.004 20.5145 65.0631 20.5326 65.1092C20.2097 65.4098 19.0316 64.6849 18.3267 63.8667C18.1635 63.6774 17.9972 63.4701 17.8383 63.2639L17.8375 63.2631C17.3072 62.5754 16.8558 61.8943 16.8558 61.8943L16.625 61.543Z" fill="white"/>
<path d="M17.8384 63.2643C17.2554 62.5913 16.8083 61.964 16.4688 61.418C16.5138 61.4686 16.5673 61.5114 16.6257 61.5441L16.8567 61.8954C16.8567 61.8954 17.3081 62.5765 17.8384 63.2643Z" fill="white"/>
<path d="M16.5391 50.9281C16.6867 50.6769 16.8446 50.4325 17.0122 50.1953L17.1658 50.2649C17.0351 50.4487 16.9159 50.6267 16.828 50.779C16.7199 50.8005 16.6197 50.8526 16.5391 50.9281Z" fill="white"/>
<path d="M15.0586 56.3284C15.0665 54.4862 15.5376 52.7532 16.3596 51.2432C16.3392 51.3368 16.3412 51.4348 16.3661 51.53C16.4072 51.686 16.5062 51.8168 16.644 51.8976C16.6843 51.9214 16.7269 51.9399 16.771 51.9534C16.6757 52.1458 16.5866 52.3418 16.5037 52.5411C15.9928 53.7682 15.7338 55.0718 15.7338 56.4164C15.7338 57.761 15.993 59.0648 16.5037 60.2916C16.5327 60.3617 16.5626 60.4311 16.5934 60.5002C16.4654 60.5815 16.3739 60.7069 16.3349 60.8561C16.32 60.9121 16.3132 60.9689 16.3147 61.0252C16.0928 60.6327 15.758 60.0115 15.4809 59.37L15.4804 59.3685C15.2637 58.6186 15.1262 57.8349 15.0778 57.0269" fill="white"/>
<path d="M15.5039 59.4414C15.5712 59.6533 15.8057 60.315 16.3584 61.2371C16.369 61.264 16.3816 61.2903 16.396 61.3159C16.4169 61.3527 16.4413 61.3868 16.4688 61.4177C16.8086 61.9637 17.2558 62.5911 17.8385 63.264L17.8392 63.2648C17.9982 63.4713 18.1645 63.6783 18.3277 63.8676C19.0326 64.6858 20.2106 65.4107 20.5336 65.1101C20.5449 65.1387 20.5542 65.1625 20.561 65.1794C20.623 65.3342 20.6006 65.4145 20.4613 65.5443C20.4252 65.5777 20.3786 65.5967 20.3222 65.6031C18.0297 64.2613 16.2813 62.0633 15.5039 59.4414Z" fill="white"/>
<path d="M15.0483 58.1064C15.1314 58.4935 15.2924 58.9357 15.4798 59.3686L15.4803 59.3701C15.4806 59.3712 15.4811 59.3734 15.4821 59.3765C15.4829 59.3793 15.4841 59.3834 15.4856 59.3883C15.4861 59.3898 15.4864 59.3916 15.4872 59.3934C15.4889 59.3998 15.4909 59.4065 15.4929 59.4126C15.4937 59.4154 15.4947 59.4187 15.4957 59.4221C15.4965 59.4248 15.4977 59.4282 15.4985 59.4313C15.4992 59.4343 15.5005 59.4377 15.5015 59.441C16.2792 62.0628 18.0276 64.2609 20.3203 65.6029C20.1591 65.6213 19.9188 65.5374 19.6238 65.4067L19.6227 65.4061C19.0378 65.0103 18.4911 64.5548 17.987 64.0429C17.0065 63.0471 16.2366 61.8876 15.699 60.5965C15.366 59.7964 15.1309 58.9661 14.9961 58.1149L15.0483 58.1064Z" fill="white"/>
<path d="M16.3562 61.2366C15.8035 60.3145 15.5689 59.6526 15.5017 59.441C15.5007 59.4377 15.4994 59.4344 15.4987 59.4313C15.4979 59.4282 15.4966 59.4251 15.4959 59.4221C15.4949 59.4188 15.4939 59.4157 15.4931 59.4126C15.4911 59.4065 15.4891 59.3998 15.4873 59.3934L15.4858 59.3883C15.4843 59.3835 15.4833 59.3794 15.4823 59.3766C15.4815 59.3735 15.4805 59.3701 15.4805 59.3701C15.7576 60.0116 16.0924 60.6329 16.3144 61.0253C16.3154 61.0972 16.3295 61.1689 16.3562 61.2366Z" fill="white"/>
<path d="M15.4841 59.3689C15.2967 58.936 15.1354 58.4939 15.0526 58.1067L15.0004 58.1149C14.9495 57.7944 14.9127 57.4707 14.8906 57.1445C14.9634 57.1212 15.0289 57.0807 15.0818 57.0273C15.1299 57.8353 15.2675 58.6193 15.4841 59.3689Z" fill="white"/>
<path d="M15.0628 56.555C15.0618 56.4954 15.0613 56.4355 15.0613 56.3757C15.0613 56.36 15.0613 56.3444 15.0615 56.3286C15.0061 56.2782 14.9386 56.2416 14.8643 56.2227C14.8635 56.2736 14.8633 56.3247 14.8633 56.3757C14.8633 56.4204 14.8635 56.4652 14.864 56.5097C14.8666 56.7221 14.8751 56.9337 14.8895 57.1443C14.9623 57.121 15.028 57.0805 15.0809 57.0271C15.0714 56.8705 15.0653 56.7134 15.0628 56.555Z" fill="white"/>
<path d="M41.1758 60.4212V52.8928H42.349V59.3601H45.5506V60.4212H41.1758ZM48.9517 60.5424C48.4148 60.5424 47.9375 60.4178 47.5199 60.1685C47.109 59.9126 46.7875 59.569 46.5555 59.1378C46.3235 58.6999 46.2075 58.2115 46.2075 57.6725C46.2075 57.1201 46.3235 56.6317 46.5555 56.2073C46.7941 55.7829 47.1123 55.4494 47.51 55.2069C47.9077 54.9576 48.3584 54.833 48.8622 54.833C49.2666 54.833 49.6278 54.9037 49.946 55.0452C50.2642 55.1866 50.5326 55.382 50.7514 55.6313C50.9701 55.8738 51.1359 56.1534 51.2485 56.47C51.3678 56.7866 51.4275 57.1235 51.4275 57.4805C51.4275 57.5681 51.4242 57.6591 51.4175 57.7534C51.4109 57.8477 51.3977 57.9353 51.3778 58.0161H47.0924V57.1066H50.7414L50.2045 57.521C50.2708 57.1908 50.2476 56.8978 50.1349 56.6418C50.0288 56.3791 49.8632 56.1736 49.6378 56.0254C49.419 55.8705 49.1605 55.793 48.8622 55.793C48.5639 55.793 48.2988 55.8705 48.0668 56.0254C47.8348 56.1736 47.6559 56.3892 47.5299 56.6721C47.4039 56.9483 47.3542 57.2852 47.3807 57.6826C47.3476 58.0532 47.3973 58.3766 47.5299 58.6528C47.6691 58.9289 47.8613 59.1446 48.1066 59.2995C48.3584 59.4544 48.6435 59.5319 48.9617 59.5319C49.2865 59.5319 49.5615 59.4578 49.7869 59.3096C50.0189 59.1614 50.2012 58.9694 50.3338 58.7336L51.2485 59.1883C51.1424 59.4443 50.9768 59.6767 50.7514 59.8856C50.5326 60.0877 50.2675 60.2494 49.9559 60.3706C49.651 60.4852 49.3163 60.5424 48.9517 60.5424ZM55.1191 60.5424C54.6021 60.5424 54.1281 60.4178 53.6973 60.1685C53.273 59.9193 52.935 59.5791 52.6831 59.1479C52.4312 58.7167 52.3053 58.2283 52.3053 57.6826C52.3053 57.1302 52.4312 56.6418 52.6831 56.2174C52.935 55.7862 53.273 55.4494 53.6973 55.2069C54.1215 54.9576 54.5954 54.833 55.1191 54.833C55.6494 54.833 56.1233 54.9576 56.5409 55.2069C56.9652 55.4494 57.2999 55.7862 57.5451 56.2174C57.797 56.6418 57.923 57.1302 57.923 57.6826C57.923 58.2351 57.797 58.7268 57.5451 59.158C57.2933 59.5892 56.9552 59.9294 56.531 60.1786C56.1067 60.4212 55.6361 60.5424 55.1191 60.5424ZM55.1191 59.4814C55.4373 59.4814 55.7189 59.4039 55.9642 59.249C56.2095 59.094 56.4017 58.8818 56.5409 58.6123C56.6868 58.3361 56.7597 58.0262 56.7597 57.6826C56.7597 57.3391 56.6868 57.0326 56.5409 56.7631C56.4017 56.4936 56.2095 56.2814 55.9642 56.1264C55.7189 55.9715 55.4373 55.894 55.1191 55.894C54.8076 55.894 54.5258 55.9715 54.2739 56.1264C54.0287 56.2814 53.8332 56.4936 53.6873 56.7631C53.5481 57.0326 53.4785 57.3391 53.4785 57.6826C53.4785 58.0262 53.5481 58.3361 53.6873 58.6123C53.8332 58.8818 54.0287 59.094 54.2739 59.249C54.5258 59.4039 54.8076 59.4814 55.1191 59.4814ZM59.0199 60.4212V54.9542H60.0937V56.0254L59.9644 55.8839C60.097 55.5403 60.3091 55.2809 60.6008 55.1058C60.8925 54.9239 61.2305 54.833 61.6149 54.833C62.0127 54.833 62.364 54.9206 62.6689 55.0957C62.974 55.2708 63.2125 55.5134 63.3845 55.8233C63.557 56.1332 63.6435 56.4902 63.6435 56.8944V60.4212H62.5297V57.1976C62.5297 56.9214 62.48 56.689 62.3805 56.5003C62.2811 56.305 62.1386 56.1568 61.953 56.0557C61.774 55.9479 61.5686 55.894 61.3365 55.894C61.1046 55.894 60.8958 55.9479 60.7101 56.0557C60.5312 56.1568 60.392 56.305 60.2925 56.5003C60.1931 56.6957 60.1434 56.9281 60.1434 57.1976V60.4212H59.0199ZM66.4565 60.5424C66.092 60.5424 65.7705 60.4785 65.492 60.3504C65.2205 60.2157 65.008 60.0338 64.8555 59.8048C64.703 59.569 64.627 59.2927 64.627 58.9761C64.627 58.6797 64.69 58.4136 64.816 58.1778C64.9485 57.942 65.1505 57.7433 65.4225 57.5816C65.694 57.4199 66.0355 57.3054 66.4465 57.238L68.316 56.9248V57.8241L66.6655 58.1172C66.367 58.171 66.148 58.2688 66.009 58.4102C65.87 58.5449 65.8 58.7201 65.8 58.9357C65.8 59.1446 65.8765 59.3164 66.029 59.4511C66.188 59.5791 66.39 59.6431 66.6355 59.6431C66.9405 59.6431 67.2055 59.5757 67.431 59.441C67.663 59.3062 67.842 59.1277 67.968 58.9054C68.0935 58.6763 68.1565 58.4237 68.1565 58.1475V56.7429C68.1565 56.4734 68.0575 56.2545 67.8585 56.086C67.666 55.9109 67.4075 55.8233 67.083 55.8233C66.7845 55.8233 66.523 55.9041 66.2975 56.0658C66.0785 56.2207 65.9165 56.4228 65.81 56.6721L64.8755 56.1972C64.975 55.9277 65.1375 55.6919 65.363 55.4898C65.588 55.2809 65.85 55.1193 66.148 55.0048C66.453 54.8902 66.7745 54.833 67.1125 54.833C67.537 54.833 67.9115 54.9138 68.236 55.0755C68.5675 55.2372 68.823 55.4628 69.002 55.7525C69.1875 56.0355 69.28 56.3656 69.28 56.7429V60.4212H68.2065V59.4309L68.435 59.4612C68.309 59.6835 68.147 59.8755 67.948 60.0372C67.7555 60.1989 67.5335 60.3235 67.2815 60.4111C67.0365 60.4987 66.7615 60.5424 66.4565 60.5424ZM70.594 60.4212V54.9542H71.668V56.0557L71.5685 55.894C71.6875 55.537 71.88 55.2809 72.145 55.126C72.41 54.9643 72.7285 54.8835 73.0995 54.8835H73.4275V55.9243H72.9605C72.589 55.9243 72.2875 56.0422 72.0555 56.278C71.83 56.5071 71.7175 56.8372 71.7175 57.2683V60.4212H70.594ZM76.682 60.5424C76.165 60.5424 75.7005 60.4178 75.29 60.1685C74.8855 59.9126 74.564 59.569 74.3255 59.1378C74.0935 58.7066 73.9775 58.2216 73.9775 57.6826C73.9775 57.1437 74.097 56.6587 74.3355 56.2275C74.574 55.7963 74.8955 55.4561 75.3 55.2069C75.7045 54.9576 76.162 54.833 76.672 54.833C77.1025 54.833 77.484 54.9206 77.8155 55.0957C78.1465 55.2708 78.409 55.5134 78.601 55.8233L78.432 56.086V52.7715H79.5455V60.4212H78.4815V59.3096L78.611 59.5218C78.425 59.8519 78.1605 60.1046 77.8155 60.2797C77.4705 60.4548 77.0925 60.5424 76.682 60.5424ZM76.7915 59.4814C77.1025 59.4814 77.381 59.4039 77.6265 59.249C77.878 59.094 78.074 58.8818 78.213 58.6123C78.359 58.3361 78.432 58.0262 78.432 57.6826C78.432 57.3391 78.359 57.0326 78.213 56.7631C78.074 56.4936 77.878 56.2814 77.6265 56.1264C77.381 55.9715 77.1025 55.894 76.7915 55.894C76.48 55.894 76.198 55.9715 75.946 56.1264C75.6945 56.2814 75.499 56.4936 75.3595 56.7631C75.2205 57.0326 75.151 57.3391 75.151 57.6826C75.151 58.0262 75.2205 58.3361 75.3595 58.6123C75.499 58.8818 75.691 59.094 75.936 59.249C76.188 59.4039 76.473 59.4814 76.7915 59.4814ZM83.4525 60.5424C82.9355 60.5424 82.461 60.4178 82.0305 60.1685C81.606 59.9193 81.268 59.5791 81.0165 59.1479C80.7645 58.7167 80.6385 58.2283 80.6385 57.6826C80.6385 57.1302 80.7645 56.6418 81.0165 56.2174C81.268 55.7862 81.606 55.4494 82.0305 55.2069C82.455 54.9576 82.9285 54.833 83.4525 54.833C83.9825 54.833 84.4565 54.9576 84.874 55.2069C85.2985 55.4494 85.633 55.7862 85.8785 56.2174C86.13 56.6418 86.2565 57.1302 86.2565 57.6826C86.2565 58.2351 86.13 58.7268 85.8785 59.158C85.627 59.5892 85.2885 59.9294 84.8645 60.1786C84.44 60.4212 83.9695 60.5424 83.4525 60.5424ZM83.4525 59.4814C83.7705 59.4814 84.052 59.4039 84.2975 59.249C84.543 59.094 84.735 58.8818 84.874 58.6123C85.0205 58.3361 85.093 58.0262 85.093 57.6826C85.093 57.3391 85.0205 57.0326 84.874 56.7631C84.735 56.4936 84.543 56.2814 84.2975 56.1264C84.052 55.9715 83.7705 55.894 83.4525 55.894C83.141 55.894 82.859 55.9715 82.6075 56.1264C82.362 56.2814 82.1665 56.4936 82.0205 56.7631C81.8815 57.0326 81.812 57.3391 81.812 57.6826C81.812 58.0262 81.8815 58.3361 82.0205 58.6123C82.1665 58.8818 82.362 59.094 82.6075 59.249C82.859 59.4039 83.141 59.4814 83.4525 59.4814ZM87.8505 60.4212V59.1075H88.9935V60.4212H87.8505ZM90.2535 60.4212L92.8585 52.8928H94.31L96.915 60.4212H95.662L95.0955 58.7336H92.083L91.506 60.4212H90.2535ZM92.421 57.6725H94.7375L93.425 53.7315H93.753L92.421 57.6725ZM97.6845 60.4212V54.9542H98.808V60.4212H97.6845ZM97.6845 54.2064V52.8928H98.808V54.2064H97.6845Z" fill="white"/>
</svg>
