<svg width="112" height="112" viewBox="0 0 112 112" fill="none" xmlns="http://www.w3.org/2000/svg">
<path d="M50.8349 68.2551C50.1522 68.2551 49.461 68.1132 48.7967 67.8208L34.6182 61.5029C32.0833 60.3774 30.9406 57.391 32.0662 54.8572L38.384 40.6788C39.5096 38.1438 42.496 37.0011 45.0297 38.1267L59.2081 44.4445C61.7431 45.5701 62.8858 48.5565 61.7602 51.0903L55.4424 65.2687C54.6007 67.1479 52.7569 68.2551 50.8349 68.2551ZM49.9748 65.1635C51.0466 65.6418 52.3055 65.1549 52.7839 64.0917L59.1017 49.9133C59.58 48.8416 59.0931 47.5827 58.0299 47.1043L43.843 40.7865C42.7712 40.3081 41.5123 40.795 41.034 41.8582L34.7161 56.0366C34.2378 57.1083 34.7247 58.3673 35.7879 58.8456L49.9748 65.1635Z" fill="white"/>
<path d="M95.3125 68.2647H79.7871C77.0135 68.2647 74.7539 66.0049 74.7539 63.2314V47.7061C74.7539 44.9325 77.0135 42.6729 79.7871 42.6729H95.3125C98.086 42.6729 100.346 44.9325 100.346 47.7061V63.2314C100.346 66.0049 98.086 68.2647 95.3125 68.2647ZM79.7871 45.5784C78.6175 45.5784 77.6607 46.5351 77.6607 47.7048V63.2303C77.6607 64.3999 78.6175 65.3565 79.7871 65.3565H95.3125C96.4821 65.3565 97.4388 64.3999 97.4388 63.2303V47.7048C97.4388 46.5351 96.4821 45.5784 95.3125 45.5784H79.7871Z" fill="white"/>
<path d="M37.169 50.5511L35.0781 55.2296C35.0512 55.2822 35.0255 55.3274 34.9986 55.3715L35.8134 60.4047C35.9994 61.5657 35.2102 62.6558 34.059 62.8418L18.7293 65.3229C18.1714 65.411 17.6037 65.2789 17.1425 64.951C16.6813 64.6231 16.3803 64.1264 16.2922 63.5685L13.8099 48.2376C13.7218 47.6797 13.8539 47.1121 14.1818 46.6508C14.5097 46.1896 15.0064 45.8886 15.5643 45.8005L30.8939 43.3194C31.0089 43.3023 31.124 43.2925 31.2304 43.2925C32.2495 43.2925 33.1622 44.0363 33.331 45.0824L34.1556 50.1511L36.3174 45.3038L36.2024 44.6211C35.7596 41.8831 33.172 40.0137 30.4339 40.4566L15.1043 42.9377C13.7842 43.142 12.6146 43.8589 11.834 44.949C11.0449 46.0391 10.7354 47.3678 10.9482 48.6976L13.4294 64.0273C13.6422 65.356 14.3604 66.517 15.4493 67.3061C16.3093 67.935 17.3285 68.2543 18.3818 68.2543C18.6473 68.2543 18.9226 68.2372 19.1967 68.1919L34.5263 65.7108C37.2644 65.2679 39.1338 62.6803 38.6909 59.9422L37.169 50.5511Z" fill="white"/>
<path d="M55.5558 57.8702L57.8069 52.8284L57.1683 48.1402C57.0887 47.5823 57.2392 47.0232 57.5842 46.5717C57.9292 46.1203 58.426 45.8279 58.9936 45.7569L74.3771 43.6661C74.475 43.6575 74.5717 43.6489 74.6695 43.6489C75.1308 43.6489 75.5737 43.7994 75.9541 44.0832C76.0251 44.1359 76.0875 44.1983 76.1487 44.2521C76.8313 43.5339 77.7257 43.0201 78.7277 42.7986C78.4438 42.4084 78.1074 42.0634 77.7086 41.7624C76.6368 40.9476 75.3155 40.6013 73.9869 40.7787L58.5862 42.8696C57.2576 43.047 56.0696 43.7382 55.2634 44.81C54.4486 45.8817 54.1023 47.203 54.2797 48.5317L55.5558 57.8702Z" fill="white"/>
<path d="M81.7304 60.4669L79.7105 45.5801C78.5764 45.6156 77.6637 46.5552 77.6637 47.6979V52.0667L78.8602 60.8571C78.9397 61.415 78.7893 61.9741 78.4443 62.4256C78.0992 62.877 77.6025 63.1694 77.0348 63.2404L61.6513 65.3313C61.0935 65.4108 60.5343 65.2603 60.0829 64.9153C59.6315 64.5703 59.339 64.0736 59.2681 63.5059L58.5597 58.2867L56.3086 63.3285L56.3881 63.8962C56.5655 65.2248 57.2568 66.4128 58.3285 67.219C59.2143 67.8919 60.2689 68.2467 61.3675 68.2467C61.5975 68.2467 61.8287 68.2296 62.0588 68.2027L77.4239 66.1289C78.7526 65.9515 79.9405 65.2603 80.7468 64.1886C81.5628 63.1156 81.9078 61.7955 81.7304 60.4669Z" fill="white"/>
<path d="M38.3307 75.6301L40.528 72.3868H38.7197C38.6218 72.3868 38.5423 72.3073 38.5423 72.2094V71.7751C38.5423 71.6772 38.6218 71.5977 38.7197 71.5977H41.6878C41.7856 71.5977 41.8652 71.6772 41.8652 71.7751V71.9439C41.8652 71.9794 41.8566 72.0148 41.8383 72.0418L39.685 75.2851H41.6168C41.7147 75.2851 41.7942 75.3646 41.7942 75.4625V75.8968C41.7942 75.9947 41.7147 76.0742 41.6168 76.0742H38.4799C38.382 76.0742 38.3025 75.9947 38.3025 75.8968V75.7378C38.2952 75.6913 38.3123 75.6558 38.3307 75.6301Z" fill="white"/>
<path d="M47.582 73.8042C47.582 72.4755 48.5571 71.5176 49.8858 71.5176C51.2597 71.5176 52.1895 72.4572 52.1895 73.8127C52.1895 75.1867 51.2413 76.1348 49.8674 76.1348C48.4862 76.1336 47.582 75.1854 47.582 73.8042ZM51.1361 73.8213C51.1361 73.0151 50.7458 72.3238 49.8686 72.3238C48.9829 72.3238 48.6452 73.042 48.6452 73.8568C48.6452 74.6276 49.0612 75.3372 49.9127 75.3372C50.7899 75.3274 51.1361 74.575 51.1361 73.8213Z" fill="white"/>
<path d="M58.4898 71.5889H59.1455C59.2434 71.5889 59.3229 71.6684 59.3229 71.7663V73.4142H61.1838V71.7663C61.1838 71.6684 61.2633 71.5889 61.3612 71.5889H62.0169C62.1148 71.5889 62.1943 71.6684 62.1943 71.7663V75.8868C62.1943 75.9847 62.1148 76.0642 62.0169 76.0642H61.3698C61.2719 76.0642 61.1924 75.9847 61.1924 75.8868V74.2205H59.3315V75.8868C59.3315 75.9847 59.252 76.0642 59.1541 76.0642H58.4983C58.4005 76.0642 58.3209 75.9847 58.3209 75.8868V71.7663C58.3124 71.6684 58.3919 71.5889 58.4898 71.5889Z" fill="white"/>
<path d="M68.3203 73.8042C68.3203 72.4755 69.2953 71.5176 70.624 71.5176C71.9979 71.5176 72.9277 72.4572 72.9277 73.8127C72.9277 75.1867 71.9796 76.1348 70.6056 76.1348C69.2244 76.1336 68.3203 75.1854 68.3203 73.8042ZM71.8646 73.8213C71.8646 73.0151 71.4743 72.3238 70.5971 72.3238C69.7113 72.3238 69.3736 73.042 69.3736 73.8568C69.3736 74.6276 69.7896 75.3372 70.6411 75.3372C71.5195 75.3274 71.8646 74.575 71.8646 73.8213Z" fill="white"/>
</svg>
